ISO-10303-21;
HEADER;
/* Generated by software containing ST-Developer
 * from STEP Tools, Inc. (www.steptools.com) 
 */

FILE_DESCRIPTION(
/* description */ (''),
/* implementation_level */ '2;1');

FILE_NAME(
/* name */ 'rear_cover.step',
/* time_stamp */ '2026-05-26T06:49:42+02:00',
/* author */ (''),
/* organization */ (''),
/* preprocessor_version */ 'ST-DEVELOPER v20.1',
/* originating_system */ 'Autodesk Translation Framework v15.8.0.0',
/* authorisation */ '');

FILE_SCHEMA (('AUTOMOTIVE_DESIGN { 1 0 10303 214 3 1 1 }'));
ENDSEC;

DATA;
#10=MECHANICAL_DESIGN_GEOMETRIC_PRESENTATION_REPRESENTATION('',(#13),#1562);
#11=SHAPE_REPRESENTATION_RELATIONSHIP('SRR','None',#1569,#12);
#12=ADVANCED_BREP_SHAPE_REPRESENTATION('',(#14),#1561);
#13=STYLED_ITEM('',(#1578),#14);
#14=MANIFOLD_SOLID_BREP('rear_cover',#858);
#15=FACE_BOUND('',#165,.T.);
#16=FACE_BOUND('',#166,.T.);
#17=FACE_BOUND('',#167,.T.);
#18=FACE_BOUND('',#168,.T.);
#19=FACE_BOUND('',#169,.T.);
#20=FACE_BOUND('',#170,.T.);
#21=FACE_BOUND('',#171,.T.);
#22=FACE_BOUND('',#172,.T.);
#23=FACE_BOUND('',#173,.T.);
#24=FACE_BOUND('',#174,.T.);
#25=FACE_BOUND('',#175,.T.);
#26=FACE_BOUND('',#176,.T.);
#27=FACE_BOUND('',#177,.T.);
#28=FACE_BOUND('',#179,.T.);
#29=FACE_BOUND('',#180,.T.);
#30=FACE_BOUND('',#181,.T.);
#31=FACE_BOUND('',#182,.T.);
#32=FACE_BOUND('',#183,.T.);
#33=FACE_BOUND('',#189,.T.);
#34=FACE_BOUND('',#191,.T.);
#35=FACE_BOUND('',#193,.T.);
#36=FACE_BOUND('',#195,.T.);
#37=CYLINDRICAL_SURFACE('',#888,1.00000034661754);
#38=CYLINDRICAL_SURFACE('',#891,0.999999901438524);
#39=CYLINDRICAL_SURFACE('',#894,1.00000006398468);
#40=CYLINDRICAL_SURFACE('',#897,0.999999618805678);
#41=CYLINDRICAL_SURFACE('',#900,10.3999998450857);
#42=CYLINDRICAL_SURFACE('',#903,1.80000012454589);
#43=CYLINDRICAL_SURFACE('',#906,1.79999880643204);
#44=CYLINDRICAL_SURFACE('',#909,1.80000003321957);
#45=CYLINDRICAL_SURFACE('',#912,1.79999871510312);
#46=CYLINDRICAL_SURFACE('',#915,1.09999959631145);
#47=CYLINDRICAL_SURFACE('',#917,1.09999979499269);
#48=CYLINDRICAL_SURFACE('',#919,1.09999991575266);
#49=CYLINDRICAL_SURFACE('',#921,1.09999971707159);
#50=B_SPLINE_CURVE_WITH_KNOTS('',3,(#1261,#1262,#1263,#1264,#1265,#1266,
#1267,#1268,#1269,#1270,#1271,#1272,#1273,#1274,#1275,#1276,#1277,#1278,
#1279,#1280,#1281,#1282,#1283,#1284,#1285,#1286,#1287),.UNSPECIFIED.,.F.,
 .F.,(4,2,2,2,3,2,2,2,2,2,2,2,4),(0.497226258273412,0.53866177895473,0.580097299636048,
0.621532820317366,0.662968340998684,0.704403861680001,0.745839382361319,
0.787274903042637,0.828710423723955,0.870145944405273,0.911581465086591,
0.953016985767909,0.994452506449227),.UNSPECIFIED.);
#51=B_SPLINE_CURVE_WITH_KNOTS('',3,(#1288,#1289,#1290,#1291,#1292,#1293,
#1294,#1295,#1296,#1297),.UNSPECIFIED.,.F.,.F.,(4,2,2,2,4),(0.994452516546825,
1.03588799833315,1.07732348011947,1.11875896190579,1.16019444369212),
 .UNSPECIFIED.);
#52=B_SPLINE_CURVE_WITH_KNOTS('',3,(#1304,#1305,#1306,#1307,#1308,#1309,
#1310,#1311,#1312,#1313,#1314,#1315,#1316,#1317,#1318,#1319,#1320,#1321,
#1322,#1323,#1324,#1325,#1326,#1327,#1328,#1329,#1330),.UNSPECIFIED.,.F.,
 .F.,(4,2,2,2,3,2,2,2,2,2,2,2,4),(0.497226348082105,0.538661877088948,0.58009740609579,
0.621532935102632,0.662968464109474,0.704403993116316,0.745839522123158,
0.78727505113,0.828710580136842,0.870146109143685,0.911581638150527,0.953017167157369,
0.99445269616421),.UNSPECIFIED.);
#53=B_SPLINE_CURVE_WITH_KNOTS('',3,(#1331,#1332,#1333,#1334,#1335,#1336,
#1337,#1338,#1339,#1340),.UNSPECIFIED.,.F.,.F.,(4,2,2,2,4),(0.994452762516845,
1.0358882351991,1.07732370788136,1.11875918056362,1.16019465324588),
 .UNSPECIFIED.);
#54=B_SPLINE_CURVE_WITH_KNOTS('',3,(#1347,#1348,#1349,#1350,#1351,#1352,
#1353,#1354,#1355,#1356,#1357,#1358,#1359,#1360,#1361,#1362,#1363,#1364,
#1365,#1366,#1367,#1368,#1369,#1370,#1371,#1372,#1373),.UNSPECIFIED.,.F.,
 .F.,(4,2,2,2,3,2,2,2,2,2,2,2,4),(0.497226413933552,0.538661946550509,0.580097479167467,
0.621533011784424,0.662968544401381,0.704404077018338,0.745839609635295,
0.787275142252252,0.828710674869209,0.870146207486166,0.911581740103123,
0.95301727272008,0.994452805337037),.UNSPECIFIED.);
#55=B_SPLINE_CURVE_WITH_KNOTS('',3,(#1374,#1375,#1376,#1377,#1378,#1379,
#1380,#1381,#1382,#1383),.UNSPECIFIED.,.F.,.F.,(4,2,2,2,4),(0.994452871592875,
1.03588838858463,1.07732390557638,1.11875942256813,1.16019493955988),
 .UNSPECIFIED.);
#56=B_SPLINE_CURVE_WITH_KNOTS('',3,(#1390,#1391,#1392,#1393,#1394,#1395,
#1396,#1397,#1398,#1399,#1400,#1401,#1402,#1403,#1404,#1405,#1406,#1407,
#1408,#1409,#1410,#1411,#1412,#1413,#1414,#1415,#1416),.UNSPECIFIED.,.F.,
 .F.,(4,2,2,2,3,2,2,2,2,2,2,2,4),(0.497226324124955,0.538661848413227,0.5800973727015,
0.621532896989772,0.662968421278044,0.704403945566316,0.745839469854587,
0.78727499414286,0.828710518431133,0.870146042719405,0.911581567007677,
0.953017091295949,0.994452615584221),.UNSPECIFIED.);
#57=B_SPLINE_CURVE_WITH_KNOTS('',3,(#1417,#1418,#1419,#1420,#1421,#1422,
#1423,#1424,#1425,#1426),.UNSPECIFIED.,.F.,.F.,(4,2,2,2,4),(0.994452625719792,
1.03588815179145,1.07732367786311,1.11875920393477,1.16019473000643),
 .UNSPECIFIED.);
#58=CIRCLE('',#881,0.299999840177724);
#59=CIRCLE('',#883,0.300000314498972);
#60=CIRCLE('',#885,0.299999968736087);
#61=CIRCLE('',#887,0.299999494183859);
#62=CIRCLE('',#889,1.00000034661754);
#63=CIRCLE('',#890,1.00000034661754);
#64=CIRCLE('',#892,0.999999901438524);
#65=CIRCLE('',#893,0.999999901438524);
#66=CIRCLE('',#895,1.00000006398468);
#67=CIRCLE('',#896,1.00000006398468);
#68=CIRCLE('',#898,0.999999618805678);
#69=CIRCLE('',#899,0.999999618805678);
#70=CIRCLE('',#901,10.3999998450857);
#71=CIRCLE('',#902,10.3999998450857);
#72=CIRCLE('',#904,1.80000012454589);
#73=CIRCLE('',#905,1.80000012454589);
#74=CIRCLE('',#907,1.79999880643204);
#75=CIRCLE('',#908,1.79999880643204);
#76=CIRCLE('',#910,1.80000003321957);
#77=CIRCLE('',#911,1.80000003321957);
#78=CIRCLE('',#913,1.79999871510312);
#79=CIRCLE('',#914,1.79999871510312);
#80=CIRCLE('',#916,1.09999959631145);
#81=CIRCLE('',#918,1.09999979499269);
#82=CIRCLE('',#920,1.09999991575266);
#83=CIRCLE('',#922,1.09999971707159);
#84=CONICAL_SURFACE('',#880,1.10000300617828,0.785398488407306);
#85=CONICAL_SURFACE('',#882,1.1000031534945,0.785398314884972);
#86=CONICAL_SURFACE('',#884,1.10000473395353,0.785398606603573);
#87=CONICAL_SURFACE('',#886,1.10000311951171,0.785398780263368);
#88=FACE_OUTER_BOUND('',#139,.T.);
#89=FACE_OUTER_BOUND('',#140,.T.);
#90=FACE_OUTER_BOUND('',#141,.T.);
#91=FACE_OUTER_BOUND('',#142,.T.);
#92=FACE_OUTER_BOUND('',#143,.T.);
#93=FACE_OUTER_BOUND('',#144,.T.);
#94=FACE_OUTER_BOUND('',#145,.T.);
#95=FACE_OUTER_BOUND('',#146,.T.);
#96=FACE_OUTER_BOUND('',#147,.T.);
#97=FACE_OUTER_BOUND('',#148,.T.);
#98=FACE_OUTER_BOUND('',#149,.T.);
#99=FACE_OUTER_BOUND('',#150,.T.);
#100=FACE_OUTER_BOUND('',#151,.T.);
#101=FACE_OUTER_BOUND('',#152,.T.);
#102=FACE_OUTER_BOUND('',#153,.T.);
#103=FACE_OUTER_BOUND('',#154,.T.);
#104=FACE_OUTER_BOUND('',#155,.T.);
#105=FACE_OUTER_BOUND('',#156,.T.);
#106=FACE_OUTER_BOUND('',#157,.T.);
#107=FACE_OUTER_BOUND('',#158,.T.);
#108=FACE_OUTER_BOUND('',#159,.T.);
#109=FACE_OUTER_BOUND('',#160,.T.);
#110=FACE_OUTER_BOUND('',#161,.T.);
#111=FACE_OUTER_BOUND('',#162,.T.);
#112=FACE_OUTER_BOUND('',#163,.T.);
#113=FACE_OUTER_BOUND('',#164,.T.);
#114=FACE_OUTER_BOUND('',#178,.T.);
#115=FACE_OUTER_BOUND('',#184,.T.);
#116=FACE_OUTER_BOUND('',#185,.T.);
#117=FACE_OUTER_BOUND('',#186,.T.);
#118=FACE_OUTER_BOUND('',#187,.T.);
#119=FACE_OUTER_BOUND('',#188,.T.);
#120=FACE_OUTER_BOUND('',#190,.T.);
#121=FACE_OUTER_BOUND('',#192,.T.);
#122=FACE_OUTER_BOUND('',#194,.T.);
#123=FACE_OUTER_BOUND('',#196,.T.);
#124=FACE_OUTER_BOUND('',#197,.T.);
#125=FACE_OUTER_BOUND('',#198,.T.);
#126=FACE_OUTER_BOUND('',#199,.T.);
#127=FACE_OUTER_BOUND('',#200,.T.);
#128=FACE_OUTER_BOUND('',#201,.T.);
#129=FACE_OUTER_BOUND('',#202,.T.);
#130=FACE_OUTER_BOUND('',#203,.T.);
#131=FACE_OUTER_BOUND('',#204,.T.);
#132=FACE_OUTER_BOUND('',#205,.T.);
#133=FACE_OUTER_BOUND('',#206,.T.);
#134=FACE_OUTER_BOUND('',#207,.T.);
#135=FACE_OUTER_BOUND('',#208,.T.);
#136=FACE_OUTER_BOUND('',#209,.T.);
#137=FACE_OUTER_BOUND('',#210,.T.);
#138=FACE_OUTER_BOUND('',#211,.T.);
#139=EDGE_LOOP('',(#551,#552,#553,#554));
#140=EDGE_LOOP('',(#555,#556,#557,#558));
#141=EDGE_LOOP('',(#559,#560,#561,#562));
#142=EDGE_LOOP('',(#563,#564,#565,#566));
#143=EDGE_LOOP('',(#567,#568,#569,#570));
#144=EDGE_LOOP('',(#571,#572,#573,#574));
#145=EDGE_LOOP('',(#575,#576,#577,#578));
#146=EDGE_LOOP('',(#579,#580,#581,#582));
#147=EDGE_LOOP('',(#583,#584,#585,#586,#587));
#148=EDGE_LOOP('',(#588,#589,#590,#591,#592));
#149=EDGE_LOOP('',(#593,#594,#595,#596,#597));
#150=EDGE_LOOP('',(#598,#599,#600,#601,#602));
#151=EDGE_LOOP('',(#603,#604,#605,#606));
#152=EDGE_LOOP('',(#607,#608,#609,#610));
#153=EDGE_LOOP('',(#611,#612,#613,#614));
#154=EDGE_LOOP('',(#615,#616,#617,#618));
#155=EDGE_LOOP('',(#619,#620,#621,#622));
#156=EDGE_LOOP('',(#623,#624,#625,#626));
#157=EDGE_LOOP('',(#627,#628,#629,#630));
#158=EDGE_LOOP('',(#631,#632,#633,#634));
#159=EDGE_LOOP('',(#635,#636,#637,#638));
#160=EDGE_LOOP('',(#639,#640,#641,#642,#643));
#161=EDGE_LOOP('',(#644,#645,#646,#647,#648));
#162=EDGE_LOOP('',(#649,#650,#651,#652,#653));
#163=EDGE_LOOP('',(#654,#655,#656,#657,#658));
#164=EDGE_LOOP('',(#659,#660,#661,#662));
#165=EDGE_LOOP('',(#663,#664,#665,#666));
#166=EDGE_LOOP('',(#667));
#167=EDGE_LOOP('',(#668));
#168=EDGE_LOOP('',(#669));
#169=EDGE_LOOP('',(#670));
#170=EDGE_LOOP('',(#671));
#171=EDGE_LOOP('',(#672,#673,#674,#675));
#172=EDGE_LOOP('',(#676,#677,#678,#679));
#173=EDGE_LOOP('',(#680));
#174=EDGE_LOOP('',(#681));
#175=EDGE_LOOP('',(#682));
#176=EDGE_LOOP('',(#683));
#177=EDGE_LOOP('',(#684,#685,#686,#687));
#178=EDGE_LOOP('',(#688,#689,#690,#691));
#179=EDGE_LOOP('',(#692));
#180=EDGE_LOOP('',(#693));
#181=EDGE_LOOP('',(#694));
#182=EDGE_LOOP('',(#695));
#183=EDGE_LOOP('',(#696));
#184=EDGE_LOOP('',(#697,#698,#699,#700));
#185=EDGE_LOOP('',(#701,#702,#703,#704));
#186=EDGE_LOOP('',(#705,#706,#707,#708));
#187=EDGE_LOOP('',(#709,#710,#711,#712));
#188=EDGE_LOOP('',(#713));
#189=EDGE_LOOP('',(#714));
#190=EDGE_LOOP('',(#715));
#191=EDGE_LOOP('',(#716));
#192=EDGE_LOOP('',(#717));
#193=EDGE_LOOP('',(#718));
#194=EDGE_LOOP('',(#719));
#195=EDGE_LOOP('',(#720));
#196=EDGE_LOOP('',(#721));
#197=EDGE_LOOP('',(#722));
#198=EDGE_LOOP('',(#723));
#199=EDGE_LOOP('',(#724));
#200=EDGE_LOOP('',(#725,#726,#727,#728));
#201=EDGE_LOOP('',(#729,#730,#731,#732));
#202=EDGE_LOOP('',(#733,#734,#735,#736));
#203=EDGE_LOOP('',(#737,#738,#739,#740));
#204=EDGE_LOOP('',(#741,#742,#743,#744));
#205=EDGE_LOOP('',(#745,#746,#747,#748));
#206=EDGE_LOOP('',(#749,#750,#751,#752));
#207=EDGE_LOOP('',(#753,#754,#755,#756));
#208=EDGE_LOOP('',(#757,#758,#759,#760));
#209=EDGE_LOOP('',(#761,#762,#763,#764));
#210=EDGE_LOOP('',(#765,#766,#767,#768));
#211=EDGE_LOOP('',(#769,#770,#771,#772));
#212=LINE('',#1186,#289);
#213=LINE('',#1188,#290);
#214=LINE('',#1190,#291);
#215=LINE('',#1191,#292);
#216=LINE('',#1195,#293);
#217=LINE('',#1197,#294);
#218=LINE('',#1199,#295);
#219=LINE('',#1200,#296);
#220=LINE('',#1204,#297);
#221=LINE('',#1206,#298);
#222=LINE('',#1208,#299);
#223=LINE('',#1209,#300);
#224=LINE('',#1213,#301);
#225=LINE('',#1215,#302);
#226=LINE('',#1217,#303);
#227=LINE('',#1218,#304);
#228=LINE('',#1222,#305);
#229=LINE('',#1224,#306);
#230=LINE('',#1226,#307);
#231=LINE('',#1227,#308);
#232=LINE('',#1231,#309);
#233=LINE('',#1233,#310);
#234=LINE('',#1235,#311);
#235=LINE('',#1236,#312);
#236=LINE('',#1240,#313);
#237=LINE('',#1242,#314);
#238=LINE('',#1244,#315);
#239=LINE('',#1245,#316);
#240=LINE('',#1249,#317);
#241=LINE('',#1251,#318);
#242=LINE('',#1253,#319);
#243=LINE('',#1254,#320);
#244=LINE('',#1259,#321);
#245=LINE('',#1302,#322);
#246=LINE('',#1345,#323);
#247=LINE('',#1388,#324);
#248=LINE('',#1431,#325);
#249=LINE('',#1437,#326);
#250=LINE('',#1443,#327);
#251=LINE('',#1449,#328);
#252=LINE('',#1455,#329);
#253=LINE('',#1461,#330);
#254=LINE('',#1467,#331);
#255=LINE('',#1473,#332);
#256=LINE('',#1479,#333);
#257=LINE('',#1483,#334);
#258=LINE('',#1487,#335);
#259=LINE('',#1491,#336);
#260=LINE('',#1495,#337);
#261=LINE('',#1500,#338);
#262=LINE('',#1502,#339);
#263=LINE('',#1504,#340);
#264=LINE('',#1505,#341);
#265=LINE('',#1506,#342);
#266=LINE('',#1507,#343);
#267=LINE('',#1508,#344);
#268=LINE('',#1509,#345);
#269=LINE('',#1510,#346);
#270=LINE('',#1511,#347);
#271=LINE('',#1512,#348);
#272=LINE('',#1513,#349);
#273=LINE('',#1517,#350);
#274=LINE('',#1519,#351);
#275=LINE('',#1521,#352);
#276=LINE('',#1522,#353);
#277=LINE('',#1524,#354);
#278=LINE('',#1525,#355);
#279=LINE('',#1527,#356);
#280=LINE('',#1529,#357);
#281=LINE('',#1540,#358);
#282=LINE('',#1541,#359);
#283=LINE('',#1545,#360);
#284=LINE('',#1546,#361);
#285=LINE('',#1550,#362);
#286=LINE('',#1551,#363);
#287=LINE('',#1555,#364);
#288=LINE('',#1556,#365);
#289=VECTOR('',#953,10.);
#290=VECTOR('',#954,10.);
#291=VECTOR('',#955,10.);
#292=VECTOR('',#956,10.);
#293=VECTOR('',#959,10.);
#294=VECTOR('',#960,10.);
#295=VECTOR('',#961,10.);
#296=VECTOR('',#962,10.);
#297=VECTOR('',#965,10.);
#298=VECTOR('',#966,10.);
#299=VECTOR('',#967,10.);
#300=VECTOR('',#968,10.);
#301=VECTOR('',#971,10.);
#302=VECTOR('',#972,10.);
#303=VECTOR('',#973,10.);
#304=VECTOR('',#974,10.);
#305=VECTOR('',#977,10.);
#306=VECTOR('',#978,10.);
#307=VECTOR('',#979,10.);
#308=VECTOR('',#980,10.);
#309=VECTOR('',#983,10.);
#310=VECTOR('',#984,10.);
#311=VECTOR('',#985,10.);
#312=VECTOR('',#986,10.);
#313=VECTOR('',#989,10.);
#314=VECTOR('',#990,10.);
#315=VECTOR('',#991,10.);
#316=VECTOR('',#992,10.);
#317=VECTOR('',#995,10.);
#318=VECTOR('',#996,10.);
#319=VECTOR('',#997,10.);
#320=VECTOR('',#998,10.);
#321=VECTOR('',#1003,10.);
#322=VECTOR('',#1008,10.);
#323=VECTOR('',#1013,10.);
#324=VECTOR('',#1018,10.);
#325=VECTOR('',#1023,10.);
#326=VECTOR('',#1030,10.);
#327=VECTOR('',#1037,10.);
#328=VECTOR('',#1044,10.);
#329=VECTOR('',#1051,10.);
#330=VECTOR('',#1058,10.);
#331=VECTOR('',#1065,10.);
#332=VECTOR('',#1072,10.);
#333=VECTOR('',#1079,10.);
#334=VECTOR('',#1084,10.);
#335=VECTOR('',#1089,10.);
#336=VECTOR('',#1094,10.);
#337=VECTOR('',#1099,10.);
#338=VECTOR('',#1104,10.);
#339=VECTOR('',#1105,10.);
#340=VECTOR('',#1106,10.);
#341=VECTOR('',#1107,10.);
#342=VECTOR('',#1108,10.);
#343=VECTOR('',#1109,10.);
#344=VECTOR('',#1110,10.);
#345=VECTOR('',#1111,10.);
#346=VECTOR('',#1112,10.);
#347=VECTOR('',#1113,10.);
#348=VECTOR('',#1114,10.);
#349=VECTOR('',#1115,10.);
#350=VECTOR('',#1118,10.);
#351=VECTOR('',#1119,10.);
#352=VECTOR('',#1120,10.);
#353=VECTOR('',#1121,10.);
#354=VECTOR('',#1124,10.);
#355=VECTOR('',#1125,10.);
#356=VECTOR('',#1128,10.);
#357=VECTOR('',#1131,10.);
#358=VECTOR('',#1152,10.);
#359=VECTOR('',#1153,10.);
#360=VECTOR('',#1160,10.);
#361=VECTOR('',#1161,10.);
#362=VECTOR('',#1168,10.);
#363=VECTOR('',#1169,10.);
#364=VECTOR('',#1176,10.);
#365=VECTOR('',#1177,10.);
#366=VERTEX_POINT('',#1184);
#367=VERTEX_POINT('',#1185);
#368=VERTEX_POINT('',#1187);
#369=VERTEX_POINT('',#1189);
#370=VERTEX_POINT('',#1193);
#371=VERTEX_POINT('',#1194);
#372=VERTEX_POINT('',#1196);
#373=VERTEX_POINT('',#1198);
#374=VERTEX_POINT('',#1202);
#375=VERTEX_POINT('',#1203);
#376=VERTEX_POINT('',#1205);
#377=VERTEX_POINT('',#1207);
#378=VERTEX_POINT('',#1211);
#379=VERTEX_POINT('',#1212);
#380=VERTEX_POINT('',#1214);
#381=VERTEX_POINT('',#1216);
#382=VERTEX_POINT('',#1220);
#383=VERTEX_POINT('',#1221);
#384=VERTEX_POINT('',#1223);
#385=VERTEX_POINT('',#1225);
#386=VERTEX_POINT('',#1229);
#387=VERTEX_POINT('',#1230);
#388=VERTEX_POINT('',#1232);
#389=VERTEX_POINT('',#1234);
#390=VERTEX_POINT('',#1238);
#391=VERTEX_POINT('',#1239);
#392=VERTEX_POINT('',#1241);
#393=VERTEX_POINT('',#1243);
#394=VERTEX_POINT('',#1247);
#395=VERTEX_POINT('',#1248);
#396=VERTEX_POINT('',#1250);
#397=VERTEX_POINT('',#1252);
#398=VERTEX_POINT('',#1256);
#399=VERTEX_POINT('',#1258);
#400=VERTEX_POINT('',#1260);
#401=VERTEX_POINT('',#1299);
#402=VERTEX_POINT('',#1301);
#403=VERTEX_POINT('',#1303);
#404=VERTEX_POINT('',#1342);
#405=VERTEX_POINT('',#1344);
#406=VERTEX_POINT('',#1346);
#407=VERTEX_POINT('',#1385);
#408=VERTEX_POINT('',#1387);
#409=VERTEX_POINT('',#1389);
#410=VERTEX_POINT('',#1428);
#411=VERTEX_POINT('',#1430);
#412=VERTEX_POINT('',#1434);
#413=VERTEX_POINT('',#1436);
#414=VERTEX_POINT('',#1440);
#415=VERTEX_POINT('',#1442);
#416=VERTEX_POINT('',#1446);
#417=VERTEX_POINT('',#1448);
#418=VERTEX_POINT('',#1452);
#419=VERTEX_POINT('',#1454);
#420=VERTEX_POINT('',#1458);
#421=VERTEX_POINT('',#1460);
#422=VERTEX_POINT('',#1464);
#423=VERTEX_POINT('',#1466);
#424=VERTEX_POINT('',#1470);
#425=VERTEX_POINT('',#1472);
#426=VERTEX_POINT('',#1476);
#427=VERTEX_POINT('',#1478);
#428=VERTEX_POINT('',#1482);
#429=VERTEX_POINT('',#1486);
#430=VERTEX_POINT('',#1490);
#431=VERTEX_POINT('',#1494);
#432=VERTEX_POINT('',#1498);
#433=VERTEX_POINT('',#1499);
#434=VERTEX_POINT('',#1501);
#435=VERTEX_POINT('',#1503);
#436=VERTEX_POINT('',#1515);
#437=VERTEX_POINT('',#1516);
#438=VERTEX_POINT('',#1518);
#439=VERTEX_POINT('',#1520);
#440=EDGE_CURVE('',#366,#367,#212,.T.);
#441=EDGE_CURVE('',#368,#366,#213,.T.);
#442=EDGE_CURVE('',#369,#368,#214,.T.);
#443=EDGE_CURVE('',#367,#369,#215,.T.);
#444=EDGE_CURVE('',#370,#371,#216,.T.);
#445=EDGE_CURVE('',#372,#370,#217,.T.);
#446=EDGE_CURVE('',#373,#372,#218,.T.);
#447=EDGE_CURVE('',#371,#373,#219,.T.);
#448=EDGE_CURVE('',#374,#375,#220,.T.);
#449=EDGE_CURVE('',#376,#374,#221,.T.);
#450=EDGE_CURVE('',#377,#376,#222,.T.);
#451=EDGE_CURVE('',#375,#377,#223,.T.);
#452=EDGE_CURVE('',#378,#379,#224,.T.);
#453=EDGE_CURVE('',#380,#378,#225,.T.);
#454=EDGE_CURVE('',#381,#380,#226,.T.);
#455=EDGE_CURVE('',#379,#381,#227,.T.);
#456=EDGE_CURVE('',#382,#383,#228,.T.);
#457=EDGE_CURVE('',#384,#382,#229,.T.);
#458=EDGE_CURVE('',#385,#384,#230,.T.);
#459=EDGE_CURVE('',#383,#385,#231,.T.);
#460=EDGE_CURVE('',#386,#387,#232,.T.);
#461=EDGE_CURVE('',#388,#386,#233,.T.);
#462=EDGE_CURVE('',#389,#388,#234,.T.);
#463=EDGE_CURVE('',#387,#389,#235,.T.);
#464=EDGE_CURVE('',#390,#391,#236,.T.);
#465=EDGE_CURVE('',#392,#390,#237,.T.);
#466=EDGE_CURVE('',#393,#392,#238,.T.);
#467=EDGE_CURVE('',#391,#393,#239,.T.);
#468=EDGE_CURVE('',#394,#395,#240,.T.);
#469=EDGE_CURVE('',#396,#394,#241,.T.);
#470=EDGE_CURVE('',#397,#396,#242,.T.);
#471=EDGE_CURVE('',#395,#397,#243,.T.);
#472=EDGE_CURVE('',#398,#398,#58,.T.);
#473=EDGE_CURVE('',#398,#399,#244,.T.);
#474=EDGE_CURVE('',#400,#399,#50,.T.);
#475=EDGE_CURVE('',#399,#400,#51,.T.);
#476=EDGE_CURVE('',#401,#401,#59,.T.);
#477=EDGE_CURVE('',#401,#402,#245,.T.);
#478=EDGE_CURVE('',#403,#402,#52,.T.);
#479=EDGE_CURVE('',#402,#403,#53,.T.);
#480=EDGE_CURVE('',#404,#404,#60,.T.);
#481=EDGE_CURVE('',#404,#405,#246,.T.);
#482=EDGE_CURVE('',#406,#405,#54,.T.);
#483=EDGE_CURVE('',#405,#406,#55,.T.);
#484=EDGE_CURVE('',#407,#407,#61,.T.);
#485=EDGE_CURVE('',#407,#408,#247,.T.);
#486=EDGE_CURVE('',#409,#408,#56,.T.);
#487=EDGE_CURVE('',#408,#409,#57,.T.);
#488=EDGE_CURVE('',#410,#410,#62,.T.);
#489=EDGE_CURVE('',#410,#411,#248,.T.);
#490=EDGE_CURVE('',#411,#411,#63,.T.);
#491=EDGE_CURVE('',#412,#412,#64,.T.);
#492=EDGE_CURVE('',#412,#413,#249,.T.);
#493=EDGE_CURVE('',#413,#413,#65,.T.);
#494=EDGE_CURVE('',#414,#414,#66,.T.);
#495=EDGE_CURVE('',#414,#415,#250,.T.);
#496=EDGE_CURVE('',#415,#415,#67,.T.);
#497=EDGE_CURVE('',#416,#416,#68,.T.);
#498=EDGE_CURVE('',#416,#417,#251,.T.);
#499=EDGE_CURVE('',#417,#417,#69,.T.);
#500=EDGE_CURVE('',#418,#418,#70,.T.);
#501=EDGE_CURVE('',#418,#419,#252,.T.);
#502=EDGE_CURVE('',#419,#419,#71,.T.);
#503=EDGE_CURVE('',#420,#420,#72,.T.);
#504=EDGE_CURVE('',#420,#421,#253,.T.);
#505=EDGE_CURVE('',#421,#421,#73,.T.);
#506=EDGE_CURVE('',#422,#422,#74,.T.);
#507=EDGE_CURVE('',#422,#423,#254,.T.);
#508=EDGE_CURVE('',#423,#423,#75,.T.);
#509=EDGE_CURVE('',#424,#424,#76,.T.);
#510=EDGE_CURVE('',#424,#425,#255,.T.);
#511=EDGE_CURVE('',#425,#425,#77,.T.);
#512=EDGE_CURVE('',#426,#426,#78,.T.);
#513=EDGE_CURVE('',#426,#427,#256,.T.);
#514=EDGE_CURVE('',#427,#427,#79,.T.);
#515=EDGE_CURVE('',#399,#428,#257,.T.);
#516=EDGE_CURVE('',#428,#428,#80,.T.);
#517=EDGE_CURVE('',#402,#429,#258,.T.);
#518=EDGE_CURVE('',#429,#429,#81,.T.);
#519=EDGE_CURVE('',#405,#430,#259,.T.);
#520=EDGE_CURVE('',#430,#430,#82,.T.);
#521=EDGE_CURVE('',#408,#431,#260,.T.);
#522=EDGE_CURVE('',#431,#431,#83,.T.);
#523=EDGE_CURVE('',#432,#433,#261,.T.);
#524=EDGE_CURVE('',#434,#432,#262,.T.);
#525=EDGE_CURVE('',#435,#434,#263,.T.);
#526=EDGE_CURVE('',#433,#435,#264,.T.);
#527=EDGE_CURVE('',#381,#374,#265,.T.);
#528=EDGE_CURVE('',#376,#380,#266,.T.);
#529=EDGE_CURVE('',#384,#388,#267,.T.);
#530=EDGE_CURVE('',#389,#382,#268,.T.);
#531=EDGE_CURVE('',#392,#396,#269,.T.);
#532=EDGE_CURVE('',#397,#390,#270,.T.);
#533=EDGE_CURVE('',#373,#366,#271,.T.);
#534=EDGE_CURVE('',#368,#372,#272,.T.);
#535=EDGE_CURVE('',#436,#437,#273,.T.);
#536=EDGE_CURVE('',#438,#436,#274,.T.);
#537=EDGE_CURVE('',#439,#438,#275,.T.);
#538=EDGE_CURVE('',#437,#439,#276,.T.);
#539=EDGE_CURVE('',#436,#435,#277,.T.);
#540=EDGE_CURVE('',#433,#437,#278,.T.);
#541=EDGE_CURVE('',#438,#434,#279,.T.);
#542=EDGE_CURVE('',#439,#432,#280,.T.);
#543=EDGE_CURVE('',#370,#369,#281,.T.);
#544=EDGE_CURVE('',#367,#371,#282,.T.);
#545=EDGE_CURVE('',#378,#377,#283,.T.);
#546=EDGE_CURVE('',#375,#379,#284,.T.);
#547=EDGE_CURVE('',#383,#387,#285,.T.);
#548=EDGE_CURVE('',#386,#385,#286,.T.);
#549=EDGE_CURVE('',#391,#395,#287,.T.);
#550=EDGE_CURVE('',#394,#393,#288,.T.);
#551=ORIENTED_EDGE('',*,*,#440,.F.);
#552=ORIENTED_EDGE('',*,*,#441,.F.);
#553=ORIENTED_EDGE('',*,*,#442,.F.);
#554=ORIENTED_EDGE('',*,*,#443,.F.);
#555=ORIENTED_EDGE('',*,*,#444,.F.);
#556=ORIENTED_EDGE('',*,*,#445,.F.);
#557=ORIENTED_EDGE('',*,*,#446,.F.);
#558=ORIENTED_EDGE('',*,*,#447,.F.);
#559=ORIENTED_EDGE('',*,*,#448,.F.);
#560=ORIENTED_EDGE('',*,*,#449,.F.);
#561=ORIENTED_EDGE('',*,*,#450,.F.);
#562=ORIENTED_EDGE('',*,*,#451,.F.);
#563=ORIENTED_EDGE('',*,*,#452,.F.);
#564=ORIENTED_EDGE('',*,*,#453,.F.);
#565=ORIENTED_EDGE('',*,*,#454,.F.);
#566=ORIENTED_EDGE('',*,*,#455,.F.);
#567=ORIENTED_EDGE('',*,*,#456,.F.);
#568=ORIENTED_EDGE('',*,*,#457,.F.);
#569=ORIENTED_EDGE('',*,*,#458,.F.);
#570=ORIENTED_EDGE('',*,*,#459,.F.);
#571=ORIENTED_EDGE('',*,*,#460,.F.);
#572=ORIENTED_EDGE('',*,*,#461,.F.);
#573=ORIENTED_EDGE('',*,*,#462,.F.);
#574=ORIENTED_EDGE('',*,*,#463,.F.);
#575=ORIENTED_EDGE('',*,*,#464,.F.);
#576=ORIENTED_EDGE('',*,*,#465,.F.);
#577=ORIENTED_EDGE('',*,*,#466,.F.);
#578=ORIENTED_EDGE('',*,*,#467,.F.);
#579=ORIENTED_EDGE('',*,*,#468,.F.);
#580=ORIENTED_EDGE('',*,*,#469,.F.);
#581=ORIENTED_EDGE('',*,*,#470,.F.);
#582=ORIENTED_EDGE('',*,*,#471,.F.);
#583=ORIENTED_EDGE('',*,*,#472,.F.);
#584=ORIENTED_EDGE('',*,*,#473,.T.);
#585=ORIENTED_EDGE('',*,*,#474,.F.);
#586=ORIENTED_EDGE('',*,*,#475,.F.);
#587=ORIENTED_EDGE('',*,*,#473,.F.);
#588=ORIENTED_EDGE('',*,*,#476,.F.);
#589=ORIENTED_EDGE('',*,*,#477,.T.);
#590=ORIENTED_EDGE('',*,*,#478,.F.);
#591=ORIENTED_EDGE('',*,*,#479,.F.);
#592=ORIENTED_EDGE('',*,*,#477,.F.);
#593=ORIENTED_EDGE('',*,*,#480,.F.);
#594=ORIENTED_EDGE('',*,*,#481,.T.);
#595=ORIENTED_EDGE('',*,*,#482,.F.);
#596=ORIENTED_EDGE('',*,*,#483,.F.);
#597=ORIENTED_EDGE('',*,*,#481,.F.);
#598=ORIENTED_EDGE('',*,*,#484,.F.);
#599=ORIENTED_EDGE('',*,*,#485,.T.);
#600=ORIENTED_EDGE('',*,*,#486,.F.);
#601=ORIENTED_EDGE('',*,*,#487,.F.);
#602=ORIENTED_EDGE('',*,*,#485,.F.);
#603=ORIENTED_EDGE('',*,*,#488,.F.);
#604=ORIENTED_EDGE('',*,*,#489,.T.);
#605=ORIENTED_EDGE('',*,*,#490,.F.);
#606=ORIENTED_EDGE('',*,*,#489,.F.);
#607=ORIENTED_EDGE('',*,*,#491,.F.);
#608=ORIENTED_EDGE('',*,*,#492,.T.);
#609=ORIENTED_EDGE('',*,*,#493,.F.);
#610=ORIENTED_EDGE('',*,*,#492,.F.);
#611=ORIENTED_EDGE('',*,*,#494,.F.);
#612=ORIENTED_EDGE('',*,*,#495,.T.);
#613=ORIENTED_EDGE('',*,*,#496,.F.);
#614=ORIENTED_EDGE('',*,*,#495,.F.);
#615=ORIENTED_EDGE('',*,*,#497,.F.);
#616=ORIENTED_EDGE('',*,*,#498,.T.);
#617=ORIENTED_EDGE('',*,*,#499,.F.);
#618=ORIENTED_EDGE('',*,*,#498,.F.);
#619=ORIENTED_EDGE('',*,*,#500,.F.);
#620=ORIENTED_EDGE('',*,*,#501,.T.);
#621=ORIENTED_EDGE('',*,*,#502,.F.);
#622=ORIENTED_EDGE('',*,*,#501,.F.);
#623=ORIENTED_EDGE('',*,*,#503,.F.);
#624=ORIENTED_EDGE('',*,*,#504,.T.);
#625=ORIENTED_EDGE('',*,*,#505,.F.);
#626=ORIENTED_EDGE('',*,*,#504,.F.);
#627=ORIENTED_EDGE('',*,*,#506,.F.);
#628=ORIENTED_EDGE('',*,*,#507,.T.);
#629=ORIENTED_EDGE('',*,*,#508,.F.);
#630=ORIENTED_EDGE('',*,*,#507,.F.);
#631=ORIENTED_EDGE('',*,*,#509,.F.);
#632=ORIENTED_EDGE('',*,*,#510,.T.);
#633=ORIENTED_EDGE('',*,*,#511,.F.);
#634=ORIENTED_EDGE('',*,*,#510,.F.);
#635=ORIENTED_EDGE('',*,*,#512,.F.);
#636=ORIENTED_EDGE('',*,*,#513,.T.);
#637=ORIENTED_EDGE('',*,*,#514,.F.);
#638=ORIENTED_EDGE('',*,*,#513,.F.);
#639=ORIENTED_EDGE('',*,*,#474,.T.);
#640=ORIENTED_EDGE('',*,*,#515,.T.);
#641=ORIENTED_EDGE('',*,*,#516,.F.);
#642=ORIENTED_EDGE('',*,*,#515,.F.);
#643=ORIENTED_EDGE('',*,*,#475,.T.);
#644=ORIENTED_EDGE('',*,*,#478,.T.);
#645=ORIENTED_EDGE('',*,*,#517,.T.);
#646=ORIENTED_EDGE('',*,*,#518,.F.);
#647=ORIENTED_EDGE('',*,*,#517,.F.);
#648=ORIENTED_EDGE('',*,*,#479,.T.);
#649=ORIENTED_EDGE('',*,*,#482,.T.);
#650=ORIENTED_EDGE('',*,*,#519,.T.);
#651=ORIENTED_EDGE('',*,*,#520,.F.);
#652=ORIENTED_EDGE('',*,*,#519,.F.);
#653=ORIENTED_EDGE('',*,*,#483,.T.);
#654=ORIENTED_EDGE('',*,*,#486,.T.);
#655=ORIENTED_EDGE('',*,*,#521,.T.);
#656=ORIENTED_EDGE('',*,*,#522,.F.);
#657=ORIENTED_EDGE('',*,*,#521,.F.);
#658=ORIENTED_EDGE('',*,*,#487,.T.);
#659=ORIENTED_EDGE('',*,*,#523,.F.);
#660=ORIENTED_EDGE('',*,*,#524,.F.);
#661=ORIENTED_EDGE('',*,*,#525,.F.);
#662=ORIENTED_EDGE('',*,*,#526,.F.);
#663=ORIENTED_EDGE('',*,*,#527,.F.);
#664=ORIENTED_EDGE('',*,*,#454,.T.);
#665=ORIENTED_EDGE('',*,*,#528,.F.);
#666=ORIENTED_EDGE('',*,*,#449,.T.);
#667=ORIENTED_EDGE('',*,*,#494,.T.);
#668=ORIENTED_EDGE('',*,*,#488,.T.);
#669=ORIENTED_EDGE('',*,*,#520,.T.);
#670=ORIENTED_EDGE('',*,*,#518,.T.);
#671=ORIENTED_EDGE('',*,*,#502,.T.);
#672=ORIENTED_EDGE('',*,*,#462,.T.);
#673=ORIENTED_EDGE('',*,*,#529,.F.);
#674=ORIENTED_EDGE('',*,*,#457,.T.);
#675=ORIENTED_EDGE('',*,*,#530,.F.);
#676=ORIENTED_EDGE('',*,*,#470,.T.);
#677=ORIENTED_EDGE('',*,*,#531,.F.);
#678=ORIENTED_EDGE('',*,*,#465,.T.);
#679=ORIENTED_EDGE('',*,*,#532,.F.);
#680=ORIENTED_EDGE('',*,*,#522,.T.);
#681=ORIENTED_EDGE('',*,*,#516,.T.);
#682=ORIENTED_EDGE('',*,*,#497,.T.);
#683=ORIENTED_EDGE('',*,*,#491,.T.);
#684=ORIENTED_EDGE('',*,*,#533,.F.);
#685=ORIENTED_EDGE('',*,*,#446,.T.);
#686=ORIENTED_EDGE('',*,*,#534,.F.);
#687=ORIENTED_EDGE('',*,*,#441,.T.);
#688=ORIENTED_EDGE('',*,*,#535,.F.);
#689=ORIENTED_EDGE('',*,*,#536,.F.);
#690=ORIENTED_EDGE('',*,*,#537,.F.);
#691=ORIENTED_EDGE('',*,*,#538,.F.);
#692=ORIENTED_EDGE('',*,*,#509,.T.);
#693=ORIENTED_EDGE('',*,*,#503,.T.);
#694=ORIENTED_EDGE('',*,*,#500,.T.);
#695=ORIENTED_EDGE('',*,*,#512,.T.);
#696=ORIENTED_EDGE('',*,*,#506,.T.);
#697=ORIENTED_EDGE('',*,*,#526,.T.);
#698=ORIENTED_EDGE('',*,*,#539,.F.);
#699=ORIENTED_EDGE('',*,*,#535,.T.);
#700=ORIENTED_EDGE('',*,*,#540,.F.);
#701=ORIENTED_EDGE('',*,*,#525,.T.);
#702=ORIENTED_EDGE('',*,*,#541,.F.);
#703=ORIENTED_EDGE('',*,*,#536,.T.);
#704=ORIENTED_EDGE('',*,*,#539,.T.);
#705=ORIENTED_EDGE('',*,*,#542,.F.);
#706=ORIENTED_EDGE('',*,*,#537,.T.);
#707=ORIENTED_EDGE('',*,*,#541,.T.);
#708=ORIENTED_EDGE('',*,*,#524,.T.);
#709=ORIENTED_EDGE('',*,*,#540,.T.);
#710=ORIENTED_EDGE('',*,*,#538,.T.);
#711=ORIENTED_EDGE('',*,*,#542,.T.);
#712=ORIENTED_EDGE('',*,*,#523,.T.);
#713=ORIENTED_EDGE('',*,*,#505,.T.);
#714=ORIENTED_EDGE('',*,*,#490,.T.);
#715=ORIENTED_EDGE('',*,*,#508,.T.);
#716=ORIENTED_EDGE('',*,*,#493,.T.);
#717=ORIENTED_EDGE('',*,*,#511,.T.);
#718=ORIENTED_EDGE('',*,*,#496,.T.);
#719=ORIENTED_EDGE('',*,*,#514,.T.);
#720=ORIENTED_EDGE('',*,*,#499,.T.);
#721=ORIENTED_EDGE('',*,*,#472,.T.);
#722=ORIENTED_EDGE('',*,*,#476,.T.);
#723=ORIENTED_EDGE('',*,*,#480,.T.);
#724=ORIENTED_EDGE('',*,*,#484,.T.);
#725=ORIENTED_EDGE('',*,*,#443,.T.);
#726=ORIENTED_EDGE('',*,*,#543,.F.);
#727=ORIENTED_EDGE('',*,*,#444,.T.);
#728=ORIENTED_EDGE('',*,*,#544,.F.);
#729=ORIENTED_EDGE('',*,*,#442,.T.);
#730=ORIENTED_EDGE('',*,*,#534,.T.);
#731=ORIENTED_EDGE('',*,*,#445,.T.);
#732=ORIENTED_EDGE('',*,*,#543,.T.);
#733=ORIENTED_EDGE('',*,*,#544,.T.);
#734=ORIENTED_EDGE('',*,*,#447,.T.);
#735=ORIENTED_EDGE('',*,*,#533,.T.);
#736=ORIENTED_EDGE('',*,*,#440,.T.);
#737=ORIENTED_EDGE('',*,*,#451,.T.);
#738=ORIENTED_EDGE('',*,*,#545,.F.);
#739=ORIENTED_EDGE('',*,*,#452,.T.);
#740=ORIENTED_EDGE('',*,*,#546,.F.);
#741=ORIENTED_EDGE('',*,*,#546,.T.);
#742=ORIENTED_EDGE('',*,*,#455,.T.);
#743=ORIENTED_EDGE('',*,*,#527,.T.);
#744=ORIENTED_EDGE('',*,*,#448,.T.);
#745=ORIENTED_EDGE('',*,*,#450,.T.);
#746=ORIENTED_EDGE('',*,*,#528,.T.);
#747=ORIENTED_EDGE('',*,*,#453,.T.);
#748=ORIENTED_EDGE('',*,*,#545,.T.);
#749=ORIENTED_EDGE('',*,*,#547,.F.);
#750=ORIENTED_EDGE('',*,*,#459,.T.);
#751=ORIENTED_EDGE('',*,*,#548,.F.);
#752=ORIENTED_EDGE('',*,*,#460,.T.);
#753=ORIENTED_EDGE('',*,*,#548,.T.);
#754=ORIENTED_EDGE('',*,*,#458,.T.);
#755=ORIENTED_EDGE('',*,*,#529,.T.);
#756=ORIENTED_EDGE('',*,*,#461,.T.);
#757=ORIENTED_EDGE('',*,*,#463,.T.);
#758=ORIENTED_EDGE('',*,*,#530,.T.);
#759=ORIENTED_EDGE('',*,*,#456,.T.);
#760=ORIENTED_EDGE('',*,*,#547,.T.);
#761=ORIENTED_EDGE('',*,*,#549,.F.);
#762=ORIENTED_EDGE('',*,*,#467,.T.);
#763=ORIENTED_EDGE('',*,*,#550,.F.);
#764=ORIENTED_EDGE('',*,*,#468,.T.);
#765=ORIENTED_EDGE('',*,*,#471,.T.);
#766=ORIENTED_EDGE('',*,*,#532,.T.);
#767=ORIENTED_EDGE('',*,*,#464,.T.);
#768=ORIENTED_EDGE('',*,*,#549,.T.);
#769=ORIENTED_EDGE('',*,*,#550,.T.);
#770=ORIENTED_EDGE('',*,*,#466,.T.);
#771=ORIENTED_EDGE('',*,*,#531,.T.);
#772=ORIENTED_EDGE('',*,*,#469,.T.);
#773=PLANE('',#872);
#774=PLANE('',#873);
#775=PLANE('',#874);
#776=PLANE('',#875);
#777=PLANE('',#876);
#778=PLANE('',#877);
#779=PLANE('',#878);
#780=PLANE('',#879);
#781=PLANE('',#923);
#782=PLANE('',#924);
#783=PLANE('',#925);
#784=PLANE('',#926);
#785=PLANE('',#927);
#786=PLANE('',#928);
#787=PLANE('',#929);
#788=PLANE('',#930);
#789=PLANE('',#931);
#790=PLANE('',#932);
#791=PLANE('',#933);
#792=PLANE('',#934);
#793=PLANE('',#935);
#794=PLANE('',#936);
#795=PLANE('',#937);
#796=PLANE('',#938);
#797=PLANE('',#939);
#798=PLANE('',#940);
#799=PLANE('',#941);
#800=PLANE('',#942);
#801=PLANE('',#943);
#802=PLANE('',#944);
#803=PLANE('',#945);
#804=PLANE('',#946);
#805=PLANE('',#947);
#806=PLANE('',#948);
#807=ADVANCED_FACE('',(#88),#773,.F.);
#808=ADVANCED_FACE('',(#89),#774,.T.);
#809=ADVANCED_FACE('',(#90),#775,.F.);
#810=ADVANCED_FACE('',(#91),#776,.T.);
#811=ADVANCED_FACE('',(#92),#777,.T.);
#812=ADVANCED_FACE('',(#93),#778,.F.);
#813=ADVANCED_FACE('',(#94),#779,.T.);
#814=ADVANCED_FACE('',(#95),#780,.F.);
#815=ADVANCED_FACE('',(#96),#84,.T.);
#816=ADVANCED_FACE('',(#97),#85,.T.);
#817=ADVANCED_FACE('',(#98),#86,.T.);
#818=ADVANCED_FACE('',(#99),#87,.T.);
#819=ADVANCED_FACE('',(#100),#37,.F.);
#820=ADVANCED_FACE('',(#101),#38,.F.);
#821=ADVANCED_FACE('',(#102),#39,.F.);
#822=ADVANCED_FACE('',(#103),#40,.F.);
#823=ADVANCED_FACE('',(#104),#41,.F.);
#824=ADVANCED_FACE('',(#105),#42,.F.);
#825=ADVANCED_FACE('',(#106),#43,.F.);
#826=ADVANCED_FACE('',(#107),#44,.F.);
#827=ADVANCED_FACE('',(#108),#45,.F.);
#828=ADVANCED_FACE('',(#109),#46,.T.);
#829=ADVANCED_FACE('',(#110),#47,.T.);
#830=ADVANCED_FACE('',(#111),#48,.T.);
#831=ADVANCED_FACE('',(#112),#49,.T.);
#832=ADVANCED_FACE('',(#113,#15,#16,#17,#18,#19,#20,#21,#22,#23,#24,#25,
#26,#27),#781,.T.);
#833=ADVANCED_FACE('',(#114,#28,#29,#30,#31,#32),#782,.T.);
#834=ADVANCED_FACE('',(#115),#783,.F.);
#835=ADVANCED_FACE('',(#116),#784,.T.);
#836=ADVANCED_FACE('',(#117),#785,.T.);
#837=ADVANCED_FACE('',(#118),#786,.F.);
#838=ADVANCED_FACE('',(#119,#33),#787,.T.);
#839=ADVANCED_FACE('',(#120,#34),#788,.T.);
#840=ADVANCED_FACE('',(#121,#35),#789,.T.);
#841=ADVANCED_FACE('',(#122,#36),#790,.T.);
#842=ADVANCED_FACE('',(#123),#791,.F.);
#843=ADVANCED_FACE('',(#124),#792,.F.);
#844=ADVANCED_FACE('',(#125),#793,.T.);
#845=ADVANCED_FACE('',(#126),#794,.T.);
#846=ADVANCED_FACE('',(#127),#795,.F.);
#847=ADVANCED_FACE('',(#128),#796,.T.);
#848=ADVANCED_FACE('',(#129),#797,.F.);
#849=ADVANCED_FACE('',(#130),#798,.F.);
#850=ADVANCED_FACE('',(#131),#799,.F.);
#851=ADVANCED_FACE('',(#132),#800,.T.);
#852=ADVANCED_FACE('',(#133),#801,.F.);
#853=ADVANCED_FACE('',(#134),#802,.T.);
#854=ADVANCED_FACE('',(#135),#803,.F.);
#855=ADVANCED_FACE('',(#136),#804,.F.);
#856=ADVANCED_FACE('',(#137),#805,.F.);
#857=ADVANCED_FACE('',(#138),#806,.T.);
#858=CLOSED_SHELL('',(#807,#808,#809,#810,#811,#812,#813,#814,#815,#816,
#817,#818,#819,#820,#821,#822,#823,#824,#825,#826,#827,#828,#829,#830,#831,
#832,#833,#834,#835,#836,#837,#838,#839,#840,#841,#842,#843,#844,#845,#846,
#847,#848,#849,#850,#851,#852,#853,#854,#855,#856,#857));
#859=DERIVED_UNIT_ELEMENT(#861,1.);
#860=DERIVED_UNIT_ELEMENT(#1564,-3.);
#861=(
MASS_UNIT()
NAMED_UNIT(*)
SI_UNIT(.KILO.,.GRAM.)
);
#862=DERIVED_UNIT((#859,#860));
#863=MEASURE_REPRESENTATION_ITEM('density measure',
POSITIVE_RATIO_MEASURE(7850.),#862);
#864=PROPERTY_DEFINITION_REPRESENTATION(#869,#866);
#865=PROPERTY_DEFINITION_REPRESENTATION(#870,#867);
#866=REPRESENTATION('material name',(#868),#1561);
#867=REPRESENTATION('density',(#863),#1561);
#868=DESCRIPTIVE_REPRESENTATION_ITEM('Stahl','Stahl');
#869=PROPERTY_DEFINITION('material property','material name',#1571);
#870=PROPERTY_DEFINITION('material property','density of part',#1571);
#871=AXIS2_PLACEMENT_3D('',#1182,#949,#950);
#872=AXIS2_PLACEMENT_3D('',#1183,#951,#952);
#873=AXIS2_PLACEMENT_3D('',#1192,#957,#958);
#874=AXIS2_PLACEMENT_3D('',#1201,#963,#964);
#875=AXIS2_PLACEMENT_3D('',#1210,#969,#970);
#876=AXIS2_PLACEMENT_3D('',#1219,#975,#976);
#877=AXIS2_PLACEMENT_3D('',#1228,#981,#982);
#878=AXIS2_PLACEMENT_3D('',#1237,#987,#988);
#879=AXIS2_PLACEMENT_3D('',#1246,#993,#994);
#880=AXIS2_PLACEMENT_3D('',#1255,#999,#1000);
#881=AXIS2_PLACEMENT_3D('',#1257,#1001,#1002);
#882=AXIS2_PLACEMENT_3D('',#1298,#1004,#1005);
#883=AXIS2_PLACEMENT_3D('',#1300,#1006,#1007);
#884=AXIS2_PLACEMENT_3D('',#1341,#1009,#1010);
#885=AXIS2_PLACEMENT_3D('',#1343,#1011,#1012);
#886=AXIS2_PLACEMENT_3D('',#1384,#1014,#1015);
#887=AXIS2_PLACEMENT_3D('',#1386,#1016,#1017);
#888=AXIS2_PLACEMENT_3D('',#1427,#1019,#1020);
#889=AXIS2_PLACEMENT_3D('',#1429,#1021,#1022);
#890=AXIS2_PLACEMENT_3D('',#1432,#1024,#1025);
#891=AXIS2_PLACEMENT_3D('',#1433,#1026,#1027);
#892=AXIS2_PLACEMENT_3D('',#1435,#1028,#1029);
#893=AXIS2_PLACEMENT_3D('',#1438,#1031,#1032);
#894=AXIS2_PLACEMENT_3D('',#1439,#1033,#1034);
#895=AXIS2_PLACEMENT_3D('',#1441,#1035,#1036);
#896=AXIS2_PLACEMENT_3D('',#1444,#1038,#1039);
#897=AXIS2_PLACEMENT_3D('',#1445,#1040,#1041);
#898=AXIS2_PLACEMENT_3D('',#1447,#1042,#1043);
#899=AXIS2_PLACEMENT_3D('',#1450,#1045,#1046);
#900=AXIS2_PLACEMENT_3D('',#1451,#1047,#1048);
#901=AXIS2_PLACEMENT_3D('',#1453,#1049,#1050);
#902=AXIS2_PLACEMENT_3D('',#1456,#1052,#1053);
#903=AXIS2_PLACEMENT_3D('',#1457,#1054,#1055);
#904=AXIS2_PLACEMENT_3D('',#1459,#1056,#1057);
#905=AXIS2_PLACEMENT_3D('',#1462,#1059,#1060);
#906=AXIS2_PLACEMENT_3D('',#1463,#1061,#1062);
#907=AXIS2_PLACEMENT_3D('',#1465,#1063,#1064);
#908=AXIS2_PLACEMENT_3D('',#1468,#1066,#1067);
#909=AXIS2_PLACEMENT_3D('',#1469,#1068,#1069);
#910=AXIS2_PLACEMENT_3D('',#1471,#1070,#1071);
#911=AXIS2_PLACEMENT_3D('',#1474,#1073,#1074);
#912=AXIS2_PLACEMENT_3D('',#1475,#1075,#1076);
#913=AXIS2_PLACEMENT_3D('',#1477,#1077,#1078);
#914=AXIS2_PLACEMENT_3D('',#1480,#1080,#1081);
#915=AXIS2_PLACEMENT_3D('',#1481,#1082,#1083);
#916=AXIS2_PLACEMENT_3D('',#1484,#1085,#1086);
#917=AXIS2_PLACEMENT_3D('',#1485,#1087,#1088);
#918=AXIS2_PLACEMENT_3D('',#1488,#1090,#1091);
#919=AXIS2_PLACEMENT_3D('',#1489,#1092,#1093);
#920=AXIS2_PLACEMENT_3D('',#1492,#1095,#1096);
#921=AXIS2_PLACEMENT_3D('',#1493,#1097,#1098);
#922=AXIS2_PLACEMENT_3D('',#1496,#1100,#1101);
#923=AXIS2_PLACEMENT_3D('',#1497,#1102,#1103);
#924=AXIS2_PLACEMENT_3D('',#1514,#1116,#1117);
#925=AXIS2_PLACEMENT_3D('',#1523,#1122,#1123);
#926=AXIS2_PLACEMENT_3D('',#1526,#1126,#1127);
#927=AXIS2_PLACEMENT_3D('',#1528,#1129,#1130);
#928=AXIS2_PLACEMENT_3D('',#1530,#1132,#1133);
#929=AXIS2_PLACEMENT_3D('',#1531,#1134,#1135);
#930=AXIS2_PLACEMENT_3D('',#1532,#1136,#1137);
#931=AXIS2_PLACEMENT_3D('',#1533,#1138,#1139);
#932=AXIS2_PLACEMENT_3D('',#1534,#1140,#1141);
#933=AXIS2_PLACEMENT_3D('',#1535,#1142,#1143);
#934=AXIS2_PLACEMENT_3D('',#1536,#1144,#1145);
#935=AXIS2_PLACEMENT_3D('',#1537,#1146,#1147);
#936=AXIS2_PLACEMENT_3D('',#1538,#1148,#1149);
#937=AXIS2_PLACEMENT_3D('',#1539,#1150,#1151);
#938=AXIS2_PLACEMENT_3D('',#1542,#1154,#1155);
#939=AXIS2_PLACEMENT_3D('',#1543,#1156,#1157);
#940=AXIS2_PLACEMENT_3D('',#1544,#1158,#1159);
#941=AXIS2_PLACEMENT_3D('',#1547,#1162,#1163);
#942=AXIS2_PLACEMENT_3D('',#1548,#1164,#1165);
#943=AXIS2_PLACEMENT_3D('',#1549,#1166,#1167);
#944=AXIS2_PLACEMENT_3D('',#1552,#1170,#1171);
#945=AXIS2_PLACEMENT_3D('',#1553,#1172,#1173);
#946=AXIS2_PLACEMENT_3D('',#1554,#1174,#1175);
#947=AXIS2_PLACEMENT_3D('',#1557,#1178,#1179);
#948=AXIS2_PLACEMENT_3D('',#1558,#1180,#1181);
#949=DIRECTION('axis',(0.,0.,1.));
#950=DIRECTION('refdir',(1.,0.,0.));
#951=DIRECTION('center_axis',(0.,0.,1.));
#952=DIRECTION('ref_axis',(1.,0.,0.));
#953=DIRECTION('',(0.,-1.,0.));
#954=DIRECTION('',(-1.,0.,0.));
#955=DIRECTION('',(0.,1.,0.));
#956=DIRECTION('',(1.,0.,0.));
#957=DIRECTION('center_axis',(0.,0.,1.));
#958=DIRECTION('ref_axis',(1.,0.,0.));
#959=DIRECTION('',(-1.,0.,0.));
#960=DIRECTION('',(0.,-1.,0.));
#961=DIRECTION('',(1.,0.,0.));
#962=DIRECTION('',(0.,1.,0.));
#963=DIRECTION('center_axis',(0.,0.,1.));
#964=DIRECTION('ref_axis',(1.,0.,0.));
#965=DIRECTION('',(0.,-1.,0.));
#966=DIRECTION('',(-1.,0.,0.));
#967=DIRECTION('',(0.,1.,0.));
#968=DIRECTION('',(1.,0.,0.));
#969=DIRECTION('center_axis',(0.,0.,1.));
#970=DIRECTION('ref_axis',(1.,0.,0.));
#971=DIRECTION('',(-1.,0.,0.));
#972=DIRECTION('',(0.,-1.,0.));
#973=DIRECTION('',(1.,0.,0.));
#974=DIRECTION('',(0.,1.,0.));
#975=DIRECTION('center_axis',(1.,0.,0.));
#976=DIRECTION('ref_axis',(0.,0.,-1.));
#977=DIRECTION('',(0.,-1.,0.));
#978=DIRECTION('',(0.,0.,-1.));
#979=DIRECTION('',(0.,1.,0.));
#980=DIRECTION('',(0.,0.,1.));
#981=DIRECTION('center_axis',(1.,0.,0.));
#982=DIRECTION('ref_axis',(0.,0.,-1.));
#983=DIRECTION('',(0.,0.,-1.));
#984=DIRECTION('',(0.,-1.,0.));
#985=DIRECTION('',(0.,0.,1.));
#986=DIRECTION('',(0.,1.,0.));
#987=DIRECTION('center_axis',(1.,0.,0.));
#988=DIRECTION('ref_axis',(0.,0.,-1.));
#989=DIRECTION('',(0.,-1.,0.));
#990=DIRECTION('',(0.,0.,-1.));
#991=DIRECTION('',(0.,1.,0.));
#992=DIRECTION('',(0.,0.,1.));
#993=DIRECTION('center_axis',(1.,0.,0.));
#994=DIRECTION('ref_axis',(0.,0.,-1.));
#995=DIRECTION('',(0.,0.,-1.));
#996=DIRECTION('',(0.,-1.,0.));
#997=DIRECTION('',(0.,0.,1.));
#998=DIRECTION('',(0.,1.,0.));
#999=DIRECTION('center_axis',(-9.40369113487569E-8,0.999999999999903,4.29833417091149E-7));
#1000=DIRECTION('ref_axis',(0.,-4.29833417091151E-7,0.999999999999908));
#1001=DIRECTION('center_axis',(0.,-1.,0.));
#1002=DIRECTION('ref_axis',(9.40369172793263E-8,0.,0.999999999999996));
#1003=DIRECTION('',(-6.64941159986949E-8,0.70710685530799,-0.707106707065094));
#1004=DIRECTION('center_axis',(6.00783770096154E-7,0.999999999999729,4.25613759758666E-7));
#1005=DIRECTION('ref_axis',(0.,-4.25613759758743E-7,0.999999999999909));
#1006=DIRECTION('center_axis',(0.,-1.,0.));
#1007=DIRECTION('ref_axis',(-6.00783696172275E-7,0.,0.99999999999982));
#1008=DIRECTION('',(4.24818213593732E-7,0.707106975022914,-0.707106587350001));
#1009=DIRECTION('center_axis',(5.97738391423441E-7,0.999999999999807,-1.71086284195773E-7));
#1010=DIRECTION('ref_axis',(0.,1.71086284195804E-7,0.999999999999985));
#1011=DIRECTION('center_axis',(0.,-1.,0.));
#1012=DIRECTION('ref_axis',(-5.977390169215E-7,0.,0.999999999999821));
#1013=DIRECTION('',(4.22664682709949E-7,0.70710634681596,-0.707107215556742));
#1014=DIRECTION('center_axis',(-9.52451135112904E-8,0.999999999999982,-1.66790163679344E-7));
#1015=DIRECTION('ref_axis',(0.,1.66790163679344E-7,0.999999999999986));
#1016=DIRECTION('center_axis',(0.,-1.,0.));
#1017=DIRECTION('ref_axis',(9.52452464808878E-8,0.,0.999999999999995));
#1018=DIRECTION('',(-6.73484240071342E-8,0.707106227057797,-0.707107335314861));
#1019=DIRECTION('center_axis',(1.56583191308341E-15,1.,3.48167312398391E-14));
#1020=DIRECTION('ref_axis',(0.,3.48167312398391E-14,-1.));
#1021=DIRECTION('center_axis',(0.,1.,0.));
#1022=DIRECTION('ref_axis',(0.,3.48167312398391E-14,-1.));
#1023=DIRECTION('',(1.56583191308341E-15,1.,3.48167312398391E-14));
#1024=DIRECTION('center_axis',(0.,-1.,0.));
#1025=DIRECTION('ref_axis',(0.,3.48167312398391E-14,-1.));
#1026=DIRECTION('center_axis',(6.25783069229084E-15,1.,1.36602928767651E-15));
#1027=DIRECTION('ref_axis',(0.,1.36602928767651E-15,-1.));
#1028=DIRECTION('center_axis',(0.,1.,0.));
#1029=DIRECTION('ref_axis',(0.,1.36602928767651E-15,-1.));
#1030=DIRECTION('',(6.25783069229084E-15,1.,1.36602928767651E-15));
#1031=DIRECTION('center_axis',(0.,-1.,0.));
#1032=DIRECTION('ref_axis',(0.,1.36602928767651E-15,-1.));
#1033=DIRECTION('center_axis',(3.0692668505983E-17,1.,-1.3888143282863E-17));
#1034=DIRECTION('ref_axis',(0.,-1.3888143282863E-17,-1.));
#1035=DIRECTION('center_axis',(0.,1.,0.));
#1036=DIRECTION('ref_axis',(0.,-1.3888143282863E-17,-1.));
#1037=DIRECTION('',(3.0692668505983E-17,1.,-1.3888143282863E-17));
#1038=DIRECTION('center_axis',(0.,-1.,0.));
#1039=DIRECTION('ref_axis',(0.,-1.3888143282863E-17,-1.));
#1040=DIRECTION('center_axis',(4.15927192337887E-15,1.,-1.2327443105059E-16));
#1041=DIRECTION('ref_axis',(0.,-1.2327443105059E-16,-1.));
#1042=DIRECTION('center_axis',(0.,1.,0.));
#1043=DIRECTION('ref_axis',(0.,-1.2327443105059E-16,-1.));
#1044=DIRECTION('',(4.15927192337887E-15,1.,-1.2327443105059E-16));
#1045=DIRECTION('center_axis',(0.,-1.,0.));
#1046=DIRECTION('ref_axis',(0.,-1.2327443105059E-16,-1.));
#1047=DIRECTION('center_axis',(2.54456530445864E-18,-1.,1.2406910278554E-17));
#1048=DIRECTION('ref_axis',(0.,1.2406910278554E-17,1.));
#1049=DIRECTION('center_axis',(0.,-1.,0.));
#1050=DIRECTION('ref_axis',(0.,1.2406910278554E-17,1.));
#1051=DIRECTION('',(2.54456530445864E-18,-1.,1.2406910278554E-17));
#1052=DIRECTION('center_axis',(0.,1.,0.));
#1053=DIRECTION('ref_axis',(0.,1.2406910278554E-17,1.));
#1054=DIRECTION('center_axis',(1.35761389831156E-15,-1.,-2.57266207084346E-14));
#1055=DIRECTION('ref_axis',(0.,-2.57266207084346E-14,1.));
#1056=DIRECTION('center_axis',(0.,-1.,0.));
#1057=DIRECTION('ref_axis',(0.,-2.57266207084346E-14,1.));
#1058=DIRECTION('',(1.35761389831156E-15,-1.,-2.57266207084346E-14));
#1059=DIRECTION('center_axis',(0.,1.,0.));
#1060=DIRECTION('ref_axis',(0.,-2.57266207084346E-14,1.));
#1061=DIRECTION('center_axis',(0.,-1.,0.));
#1062=DIRECTION('ref_axis',(0.,0.,1.));
#1063=DIRECTION('center_axis',(0.,-1.,0.));
#1064=DIRECTION('ref_axis',(0.,0.,1.));
#1065=DIRECTION('',(0.,-1.,0.));
#1066=DIRECTION('center_axis',(0.,1.,0.));
#1067=DIRECTION('ref_axis',(0.,0.,1.));
#1068=DIRECTION('center_axis',(6.94009541266528E-19,-1.,1.86104195016682E-18));
#1069=DIRECTION('ref_axis',(0.,1.86104195016682E-18,1.));
#1070=DIRECTION('center_axis',(0.,-1.,0.));
#1071=DIRECTION('ref_axis',(0.,1.86104195016682E-18,1.));
#1072=DIRECTION('',(6.94009541266528E-19,-1.,1.86104195016682E-18));
#1073=DIRECTION('center_axis',(0.,1.,0.));
#1074=DIRECTION('ref_axis',(0.,1.86104195016682E-18,1.));
#1075=DIRECTION('center_axis',(1.8326569375839E-16,-1.,-5.43701847677962E-18));
#1076=DIRECTION('ref_axis',(0.,-5.43701847677962E-18,1.));
#1077=DIRECTION('center_axis',(0.,-1.,0.));
#1078=DIRECTION('ref_axis',(0.,-5.43701847677962E-18,1.));
#1079=DIRECTION('',(1.8326569375839E-16,-1.,-5.43701847677962E-18));
#1080=DIRECTION('center_axis',(0.,1.,0.));
#1081=DIRECTION('ref_axis',(0.,-5.43701847677962E-18,1.));
#1082=DIRECTION('center_axis',(-1.77643061134808E-16,-1.,5.11197559810025E-17));
#1083=DIRECTION('ref_axis',(0.,5.11197559810025E-17,1.));
#1084=DIRECTION('',(1.77643061134808E-16,1.,-5.11197559810025E-17));
#1085=DIRECTION('center_axis',(0.,1.,0.));
#1086=DIRECTION('ref_axis',(0.,5.11197559810025E-17,1.));
#1087=DIRECTION('center_axis',(-2.85440917004917E-17,-1.,9.92463445701617E-17));
#1088=DIRECTION('ref_axis',(0.,9.92463445701617E-17,1.));
#1089=DIRECTION('',(2.85440917004917E-17,1.,-9.92463445701617E-17));
#1090=DIRECTION('center_axis',(0.,1.,0.));
#1091=DIRECTION('ref_axis',(0.,9.92463445701617E-17,1.));
#1092=DIRECTION('center_axis',(-8.09442218814251E-17,-1.,7.64874886462102E-18));
#1093=DIRECTION('ref_axis',(0.,7.64874886462102E-18,1.));
#1094=DIRECTION('',(8.09442218814251E-17,1.,-7.64874886462102E-18));
#1095=DIRECTION('center_axis',(0.,1.,0.));
#1096=DIRECTION('ref_axis',(0.,7.64874886462102E-18,1.));
#1097=DIRECTION('center_axis',(-1.41744986339972E-16,-1.,3.00875117712539E-18));
#1098=DIRECTION('ref_axis',(0.,3.00875117712539E-18,1.));
#1099=DIRECTION('',(1.41744986339972E-16,1.,-3.00875117712539E-18));
#1100=DIRECTION('center_axis',(0.,1.,0.));
#1101=DIRECTION('ref_axis',(0.,3.00875117712539E-18,1.));
#1102=DIRECTION('center_axis',(0.,-1.,0.));
#1103=DIRECTION('ref_axis',(0.,0.,-1.));
#1104=DIRECTION('',(-1.,0.,0.));
#1105=DIRECTION('',(0.,0.,-1.));
#1106=DIRECTION('',(1.,0.,0.));
#1107=DIRECTION('',(0.,0.,1.));
#1108=DIRECTION('',(0.,0.,-1.));
#1109=DIRECTION('',(0.,0.,1.));
#1110=DIRECTION('',(-1.,0.,0.));
#1111=DIRECTION('',(1.,0.,0.));
#1112=DIRECTION('',(-1.,0.,0.));
#1113=DIRECTION('',(1.,0.,0.));
#1114=DIRECTION('',(0.,0.,-1.));
#1115=DIRECTION('',(0.,0.,1.));
#1116=DIRECTION('center_axis',(0.,1.,0.));
#1117=DIRECTION('ref_axis',(0.,0.,1.));
#1118=DIRECTION('',(0.,0.,-1.));
#1119=DIRECTION('',(-1.,0.,0.));
#1120=DIRECTION('',(0.,0.,1.));
#1121=DIRECTION('',(1.,0.,0.));
#1122=DIRECTION('center_axis',(1.,0.,0.));
#1123=DIRECTION('ref_axis',(0.,0.,-1.));
#1124=DIRECTION('',(0.,-1.,0.));
#1125=DIRECTION('',(0.,1.,0.));
#1126=DIRECTION('center_axis',(0.,0.,1.));
#1127=DIRECTION('ref_axis',(1.,0.,0.));
#1128=DIRECTION('',(0.,-1.,0.));
#1129=DIRECTION('center_axis',(1.,0.,0.));
#1130=DIRECTION('ref_axis',(0.,0.,-1.));
#1131=DIRECTION('',(0.,-1.,0.));
#1132=DIRECTION('center_axis',(0.,0.,1.));
#1133=DIRECTION('ref_axis',(1.,0.,0.));
#1134=DIRECTION('center_axis',(0.,1.,0.));
#1135=DIRECTION('ref_axis',(0.,0.,1.));
#1136=DIRECTION('center_axis',(0.,1.,0.));
#1137=DIRECTION('ref_axis',(0.,0.,1.));
#1138=DIRECTION('center_axis',(0.,1.,0.));
#1139=DIRECTION('ref_axis',(0.,0.,1.));
#1140=DIRECTION('center_axis',(0.,1.,0.));
#1141=DIRECTION('ref_axis',(0.,0.,1.));
#1142=DIRECTION('center_axis',(0.,1.,0.));
#1143=DIRECTION('ref_axis',(0.,0.,1.));
#1144=DIRECTION('center_axis',(0.,1.,0.));
#1145=DIRECTION('ref_axis',(0.,0.,1.));
#1146=DIRECTION('center_axis',(0.,-1.,0.));
#1147=DIRECTION('ref_axis',(0.,0.,-1.));
#1148=DIRECTION('center_axis',(0.,-1.,0.));
#1149=DIRECTION('ref_axis',(0.,0.,-1.));
#1150=DIRECTION('center_axis',(0.,1.,0.));
#1151=DIRECTION('ref_axis',(0.,0.,1.));
#1152=DIRECTION('',(0.,0.,-1.));
#1153=DIRECTION('',(0.,0.,1.));
#1154=DIRECTION('center_axis',(1.,0.,0.));
#1155=DIRECTION('ref_axis',(0.,0.,-1.));
#1156=DIRECTION('center_axis',(1.,0.,0.));
#1157=DIRECTION('ref_axis',(0.,0.,-1.));
#1158=DIRECTION('center_axis',(0.,1.,0.));
#1159=DIRECTION('ref_axis',(0.,0.,1.));
#1160=DIRECTION('',(0.,0.,-1.));
#1161=DIRECTION('',(0.,0.,1.));
#1162=DIRECTION('center_axis',(1.,0.,0.));
#1163=DIRECTION('ref_axis',(0.,0.,-1.));
#1164=DIRECTION('center_axis',(1.,0.,0.));
#1165=DIRECTION('ref_axis',(0.,0.,-1.));
#1166=DIRECTION('center_axis',(0.,1.,0.));
#1167=DIRECTION('ref_axis',(0.,0.,1.));
#1168=DIRECTION('',(-1.,0.,0.));
#1169=DIRECTION('',(1.,0.,0.));
#1170=DIRECTION('center_axis',(0.,0.,1.));
#1171=DIRECTION('ref_axis',(1.,0.,0.));
#1172=DIRECTION('center_axis',(0.,0.,1.));
#1173=DIRECTION('ref_axis',(1.,0.,0.));
#1174=DIRECTION('center_axis',(0.,1.,0.));
#1175=DIRECTION('ref_axis',(0.,0.,1.));
#1176=DIRECTION('',(-1.,0.,0.));
#1177=DIRECTION('',(1.,0.,0.));
#1178=DIRECTION('center_axis',(0.,0.,1.));
#1179=DIRECTION('ref_axis',(1.,0.,0.));
#1180=DIRECTION('center_axis',(0.,0.,1.));
#1181=DIRECTION('ref_axis',(1.,0.,0.));
#1182=CARTESIAN_POINT('',(0.,0.,0.));
#1183=CARTESIAN_POINT('Origin',(78.0000019073486,49.4000029563904,18.6500000953674));
#1184=CARTESIAN_POINT('',(77.0000028610229,50.4000043869019,18.6500000953674));
#1185=CARTESIAN_POINT('',(77.0000028610229,48.4000015258789,18.6500000953674));
#1186=CARTESIAN_POINT('',(77.0000028610229,49.4000029563904,18.6500000953674));
#1187=CARTESIAN_POINT('',(79.0000009536743,50.4000043869019,18.6500000953674));
#1188=CARTESIAN_POINT('',(59.1500013579121,50.4000043869019,18.6500000953674));
#1189=CARTESIAN_POINT('',(79.0000009536743,48.4000015258789,18.6500000953674));
#1190=CARTESIAN_POINT('',(79.0000009536743,49.4000029563904,18.6500000953674));
#1191=CARTESIAN_POINT('',(78.0000019073486,48.4000015258789,18.6500000953674));
#1192=CARTESIAN_POINT('Origin',(78.0000019073486,49.4000029563904,29.0499997138977));
#1193=CARTESIAN_POINT('',(79.0000009536743,48.4000015258789,29.0499997138977));
#1194=CARTESIAN_POINT('',(77.0000028610229,48.4000015258789,29.0499997138977));
#1195=CARTESIAN_POINT('',(78.0000019073486,48.4000015258789,29.0499997138977));
#1196=CARTESIAN_POINT('',(79.0000009536743,50.4000043869019,29.0499997138977));
#1197=CARTESIAN_POINT('',(79.0000009536743,49.4000029563904,29.0499997138977));
#1198=CARTESIAN_POINT('',(77.0000028610229,50.4000043869019,29.0499997138977));
#1199=CARTESIAN_POINT('',(59.1500013579121,50.4000043869019,29.0499997138977));
#1200=CARTESIAN_POINT('',(77.0000028610229,49.4000029563904,29.0499997138977));
#1201=CARTESIAN_POINT('Origin',(2.59999997913837,49.4000029563904,18.6500000953674));
#1202=CARTESIAN_POINT('',(1.60000011324883,50.4000043869019,18.6500000953674));
#1203=CARTESIAN_POINT('',(1.60000011324883,48.4000015258789,18.6500000953674));
#1204=CARTESIAN_POINT('',(1.60000011324883,49.4000029563904,18.6500000953674));
#1205=CARTESIAN_POINT('',(3.59999984502792,50.4000043869019,18.6500000953674));
#1206=CARTESIAN_POINT('',(21.450000393807,50.4000043869019,18.6500000953674));
#1207=CARTESIAN_POINT('',(3.59999984502792,48.4000015258789,18.6500000953674));
#1208=CARTESIAN_POINT('',(3.59999984502792,49.4000029563904,18.6500000953674));
#1209=CARTESIAN_POINT('',(2.59999997913837,48.4000015258789,18.6500000953674));
#1210=CARTESIAN_POINT('Origin',(2.59999997913837,49.4000029563904,29.0499997138977));
#1211=CARTESIAN_POINT('',(3.59999984502792,48.4000015258789,29.0499997138977));
#1212=CARTESIAN_POINT('',(1.60000011324883,48.4000015258789,29.0499997138977));
#1213=CARTESIAN_POINT('',(2.59999997913837,48.4000015258789,29.0499997138977));
#1214=CARTESIAN_POINT('',(3.59999984502792,50.4000043869019,29.0499997138977));
#1215=CARTESIAN_POINT('',(3.59999984502792,49.4000029563904,29.0499997138977));
#1216=CARTESIAN_POINT('',(1.60000011324883,50.4000043869019,29.0499997138977));
#1217=CARTESIAN_POINT('',(21.450000393807,50.4000043869019,29.0499997138977));
#1218=CARTESIAN_POINT('',(1.60000011324883,49.4000029563904,29.0499997138977));
#1219=CARTESIAN_POINT('Origin',(45.5000019073486,49.4000029563904,2.20000013709068));
#1220=CARTESIAN_POINT('',(45.5000019073486,50.4000043869019,1.20000004768372));
#1221=CARTESIAN_POINT('',(45.5000019073486,48.4000015258789,1.20000004768372));
#1222=CARTESIAN_POINT('',(45.5000019073486,49.4000029563904,1.20000004768372));
#1223=CARTESIAN_POINT('',(45.5000019073486,50.4000043869019,3.20000022649765));
#1224=CARTESIAN_POINT('',(45.5000019073486,50.4000043869019,12.9102944034864));
#1225=CARTESIAN_POINT('',(45.5000019073486,48.4000015258789,3.20000022649765));
#1226=CARTESIAN_POINT('',(45.5000019073486,49.4000029563904,3.20000022649765));
#1227=CARTESIAN_POINT('',(45.5000019073486,48.4000015258789,2.20000013709068));
#1228=CARTESIAN_POINT('Origin',(35.0999999046326,49.4000029563904,2.20000013709068));
#1229=CARTESIAN_POINT('',(35.0999999046326,48.4000015258789,3.20000022649765));
#1230=CARTESIAN_POINT('',(35.0999999046326,48.4000015258789,1.20000004768372));
#1231=CARTESIAN_POINT('',(35.0999999046326,48.4000015258789,2.20000013709068));
#1232=CARTESIAN_POINT('',(35.0999999046326,50.4000043869019,3.20000022649765));
#1233=CARTESIAN_POINT('',(35.0999999046326,49.4000029563904,3.20000022649765));
#1234=CARTESIAN_POINT('',(35.0999999046326,50.4000043869019,1.20000004768372));
#1235=CARTESIAN_POINT('',(35.0999999046326,50.4000043869019,12.9102944034864));
#1236=CARTESIAN_POINT('',(35.0999999046326,49.4000029563904,1.20000004768372));
#1237=CARTESIAN_POINT('Origin',(45.5000019073486,49.4000029563904,44.300000667572));
#1238=CARTESIAN_POINT('',(45.5000019073486,50.4000043869019,43.2999992370605));
#1239=CARTESIAN_POINT('',(45.5000019073486,48.4000015258789,43.2999992370605));
#1240=CARTESIAN_POINT('',(45.5000019073486,49.4000029563904,43.2999992370605));
#1241=CARTESIAN_POINT('',(45.5000019073486,50.4000043869019,45.3000020980835));
#1242=CARTESIAN_POINT('',(45.5000019073486,50.4000043869019,33.9602946687271));
#1243=CARTESIAN_POINT('',(45.5000019073486,48.4000015258789,45.3000020980835));
#1244=CARTESIAN_POINT('',(45.5000019073486,49.4000029563904,45.3000020980835));
#1245=CARTESIAN_POINT('',(45.5000019073486,48.4000015258789,44.300000667572));
#1246=CARTESIAN_POINT('Origin',(35.0999999046326,49.4000029563904,44.300000667572));
#1247=CARTESIAN_POINT('',(35.0999999046326,48.4000015258789,45.3000020980835));
#1248=CARTESIAN_POINT('',(35.0999999046326,48.4000015258789,43.2999992370605));
#1249=CARTESIAN_POINT('',(35.0999999046326,48.4000015258789,44.300000667572));
#1250=CARTESIAN_POINT('',(35.0999999046326,50.4000043869019,45.3000020980835));
#1251=CARTESIAN_POINT('',(35.0999999046326,49.4000029563904,45.3000020980835));
#1252=CARTESIAN_POINT('',(35.0999999046326,50.4000043869019,43.2999992370605));
#1253=CARTESIAN_POINT('',(35.0999999046326,50.4000043869019,33.9602946687271));
#1254=CARTESIAN_POINT('',(35.0999999046326,49.4000029563904,43.2999992370605));
#1255=CARTESIAN_POINT('Origin',(50.8000011794127,49.0000043625967,34.3500005407445));
#1256=CARTESIAN_POINT('',(50.8000012546425,48.2000017018426,34.0500005004201));
#1257=CARTESIAN_POINT('Origin',(50.8000012264314,48.2000017166138,34.3500003258266));
#1258=CARTESIAN_POINT('',(50.8000010784369,49.0000009490391,33.2500014209411));
#1259=CARTESIAN_POINT('',(50.8000011794127,49.0000048354147,33.2499975345663));
#1260=CARTESIAN_POINT('',(49.7000014821266,49.0000009502674,34.3499994277937));
#1261=CARTESIAN_POINT('Ctrl Pts',(49.7000014821255,49.0000009502674,34.3500010172525));
#1262=CARTESIAN_POINT('Ctrl Pts',(49.7000014821255,49.0000009507311,34.4881194223285));
#1263=CARTESIAN_POINT('Ctrl Pts',(49.7276044752288,49.0000009512875,34.6354440613836));
#1264=CARTESIAN_POINT('Ctrl Pts',(49.8398634560394,49.0000009524487,34.9064612153548));
#1265=CARTESIAN_POINT('Ctrl Pts',(49.9245194437468,49.0000009530536,35.030153730271));
#1266=CARTESIAN_POINT('Ctrl Pts',(50.1198483654185,49.0000009541469,35.2254826519427));
#1267=CARTESIAN_POINT('Ctrl Pts',(50.2435408803346,49.0000009547082,35.3101386396501));
#1268=CARTESIAN_POINT('Ctrl Pts',(50.5145580343059,49.0000009556922,35.4223976204607));
#1269=CARTESIAN_POINT('Ctrl Pts',(50.661882673361,49.000000956115,35.450000613564));
#1270=CARTESIAN_POINT('Ctrl Pts',(50.8000010784369,49.0000009564244,35.450000613564));
#1271=CARTESIAN_POINT('Ctrl Pts',(50.9381194835129,49.0000009567339,35.450000613564));
#1272=CARTESIAN_POINT('Ctrl Pts',(51.085444122568,49.0000009569713,35.4223976204607));
#1273=CARTESIAN_POINT('Ctrl Pts',(51.3564612765392,49.0000009572017,35.3101386396501));
#1274=CARTESIAN_POINT('Ctrl Pts',(51.4801537914554,49.0000009571947,35.2254826519427));
#1275=CARTESIAN_POINT('Ctrl Pts',(51.6754827131271,49.0000009569766,35.030153730271));
#1276=CARTESIAN_POINT('Ctrl Pts',(51.7601387008345,49.0000009567511,34.9064612153548));
#1277=CARTESIAN_POINT('Ctrl Pts',(51.8723976816451,49.0000009560929,34.6354440613836));
#1278=CARTESIAN_POINT('Ctrl Pts',(51.9000006747484,49.0000009556601,34.4881194223285));
#1279=CARTESIAN_POINT('Ctrl Pts',(51.9000006747484,49.0000009547328,34.2118826121766));
#1280=CARTESIAN_POINT('Ctrl Pts',(51.8723976816451,49.0000009541764,34.0645579731215));
#1281=CARTESIAN_POINT('Ctrl Pts',(51.7601387008344,49.000000953015,33.7935408191503));
#1282=CARTESIAN_POINT('Ctrl Pts',(51.6754827131271,49.0000009524101,33.6698483042341));
#1283=CARTESIAN_POINT('Ctrl Pts',(51.4801537914554,49.0000009513167,33.4745193825624));
#1284=CARTESIAN_POINT('Ctrl Pts',(51.3564612765392,49.0000009507553,33.389863394855));
#1285=CARTESIAN_POINT('Ctrl Pts',(51.085444122568,49.0000009497713,33.2776044140444));
#1286=CARTESIAN_POINT('Ctrl Pts',(50.9381195844889,49.0000009493485,33.2500014336199));
#1287=CARTESIAN_POINT('Ctrl Pts',(50.8000011794129,49.0000009490391,33.2500014209411));
#1288=CARTESIAN_POINT('Ctrl Pts',(50.8000010784369,49.0000009490391,33.2500014209411));
#1289=CARTESIAN_POINT('Ctrl Pts',(50.661882673361,49.0000009487296,33.2500014209411));
#1290=CARTESIAN_POINT('Ctrl Pts',(50.5145580343059,49.0000009484923,33.2776044140444));
#1291=CARTESIAN_POINT('Ctrl Pts',(50.2435408803346,49.000000948262,33.389863394855));
#1292=CARTESIAN_POINT('Ctrl Pts',(50.1198483654185,49.000000948269,33.4745193825624));
#1293=CARTESIAN_POINT('Ctrl Pts',(49.9245194437468,49.0000009484872,33.6698483042341));
#1294=CARTESIAN_POINT('Ctrl Pts',(49.8398634560394,49.0000009487128,33.7935408191503));
#1295=CARTESIAN_POINT('Ctrl Pts',(49.7276044752288,49.0000009493711,34.0645579731215));
#1296=CARTESIAN_POINT('Ctrl Pts',(49.7000016817026,49.0000009498038,34.2118810227179));
#1297=CARTESIAN_POINT('Ctrl Pts',(49.7000014821266,49.0000009502674,34.3499994277937));
#1298=CARTESIAN_POINT('Origin',(29.8000001232558,49.0000043132284,34.3500005421446));
#1299=CARTESIAN_POINT('',(29.7999996426271,48.2000015972073,34.0500001342443));
#1300=CARTESIAN_POINT('Origin',(29.7999998228626,48.2000017166138,34.3500003293368));
#1301=CARTESIAN_POINT('',(29.8000001232551,49.0000009477929,33.25000122226));
#1302=CARTESIAN_POINT('',(29.8000001232558,49.0000047814048,33.2499973886502));
#1303=CARTESIAN_POINT('',(28.7000009917899,49.0000009520614,34.349999427795));
#1304=CARTESIAN_POINT('Ctrl Pts',(28.7000009917888,49.0000009520614,34.3500010172525));
#1305=CARTESIAN_POINT('Ctrl Pts',(28.7000009917888,49.0000009529321,34.4881194472753));
#1306=CARTESIAN_POINT('Ctrl Pts',(28.7276039898777,49.0000009539278,34.6354441129401));
#1307=CARTESIAN_POINT('Ctrl Pts',(28.8398629909645,49.0000009559084,34.9064613158622));
#1308=CARTESIAN_POINT('Ctrl Pts',(28.9245189939624,49.0000009568933,35.0301538531196));
#1309=CARTESIAN_POINT('Ctrl Pts',(29.1198479509143,49.000000958598,35.2254828100716));
#1310=CARTESIAN_POINT('Ctrl Pts',(29.2435404881717,49.0000009594314,35.3101388130694));
#1311=CARTESIAN_POINT('Ctrl Pts',(29.5145576910939,49.0000009607957,35.4223978141562));
#1312=CARTESIAN_POINT('Ctrl Pts',(29.6618823567587,49.0000009613266,35.4500008122451));
#1313=CARTESIAN_POINT('Ctrl Pts',(29.8000007867815,49.0000009616612,35.4500008122451));
#1314=CARTESIAN_POINT('Ctrl Pts',(29.9381192168043,49.0000009619958,35.4500008122451));
#1315=CARTESIAN_POINT('Ctrl Pts',(30.0854438824691,49.0000009621787,35.4223978141562));
#1316=CARTESIAN_POINT('Ctrl Pts',(30.3564610853913,49.0000009621276,35.3101388130694));
#1317=CARTESIAN_POINT('Ctrl Pts',(30.4801536226487,49.0000009618936,35.2254828100716));
#1318=CARTESIAN_POINT('Ctrl Pts',(30.6754825796006,49.0000009611356,35.0301538531196));
#1319=CARTESIAN_POINT('Ctrl Pts',(30.7601385825984,49.000000960561,34.9064613158623));
#1320=CARTESIAN_POINT('Ctrl Pts',(30.8723975836852,49.0000009591246,34.6354441129401));
#1321=CARTESIAN_POINT('Ctrl Pts',(30.9000005817742,49.0000009582629,34.4881194472753));
#1322=CARTESIAN_POINT('Ctrl Pts',(30.9000005817742,49.0000009565217,34.2118825872297));
#1323=CARTESIAN_POINT('Ctrl Pts',(30.8723975836852,49.0000009555262,34.0645579215648));
#1324=CARTESIAN_POINT('Ctrl Pts',(30.7601385825984,49.0000009535459,33.7935407186427));
#1325=CARTESIAN_POINT('Ctrl Pts',(30.6754825796006,49.0000009525611,33.6698481813853));
#1326=CARTESIAN_POINT('Ctrl Pts',(30.4801536226487,49.0000009508565,33.4745192244334));
#1327=CARTESIAN_POINT('Ctrl Pts',(30.3564610853913,49.0000009500232,33.3898632214355));
#1328=CARTESIAN_POINT('Ctrl Pts',(30.0854438824691,49.0000009486587,33.2776042203487));
#1329=CARTESIAN_POINT('Ctrl Pts',(29.9381192168043,49.0000009481277,33.2500012222598));
#1330=CARTESIAN_POINT('Ctrl Pts',(29.8000007867815,49.0000009477929,33.2500012222598));
#1331=CARTESIAN_POINT('Ctrl Pts',(29.8000001232551,49.0000009477929,33.25000122226));
#1332=CARTESIAN_POINT('Ctrl Pts',(29.6618816932323,49.0000009474582,33.2500013055738));
#1333=CARTESIAN_POINT('Ctrl Pts',(29.5145576910939,49.0000009472751,33.2776042203487));
#1334=CARTESIAN_POINT('Ctrl Pts',(29.2435404881717,49.0000009473259,33.3898632214355));
#1335=CARTESIAN_POINT('Ctrl Pts',(29.1198479509143,49.0000009475598,33.4745192244334));
#1336=CARTESIAN_POINT('Ctrl Pts',(28.9245189939624,49.0000009483177,33.6698481813853));
#1337=CARTESIAN_POINT('Ctrl Pts',(28.8398629909645,49.0000009488923,33.7935407186427));
#1338=CARTESIAN_POINT('Ctrl Pts',(28.7276039898777,49.0000009503288,34.0645579215648));
#1339=CARTESIAN_POINT('Ctrl Pts',(28.7000011913658,49.0000009511907,34.2118809977724));
#1340=CARTESIAN_POINT('Ctrl Pts',(28.7000009917899,49.0000009520614,34.349999427795));
#1341=CARTESIAN_POINT('Origin',(29.8000001242251,49.0000057726974,13.3500004511706));
#1342=CARTESIAN_POINT('',(29.7999996460318,48.2000014590923,13.0500008255001));
#1343=CARTESIAN_POINT('Origin',(29.7999998253536,48.2000017166138,13.3500005367143));
#1344=CARTESIAN_POINT('',(29.8000001242226,49.0000014595573,12.2499998421665));
#1345=CARTESIAN_POINT('',(29.8000001242251,49.0000055845017,12.249995717217));
#1346=CARTESIAN_POINT('',(28.7000008710287,49.0000009494539,13.3500003814698));
#1347=CARTESIAN_POINT('Ctrl Pts',(28.7000008710287,49.0000009494538,13.3500003814698));
#1348=CARTESIAN_POINT('Ctrl Pts',(28.7000008851733,49.0000009501875,13.4881188266555));
#1349=CARTESIAN_POINT('Ctrl Pts',(28.7276038721479,49.0000009510967,13.6354433958435));
#1350=CARTESIAN_POINT('Ctrl Pts',(28.8398628855587,49.0000009530513,13.9064606285184));
#1351=CARTESIAN_POINT('Ctrl Pts',(28.9245188978502,49.0000009540968,14.030153179355));
#1352=CARTESIAN_POINT('Ctrl Pts',(29.1198478762457,49.0000009560305,14.2254821577505));
#1353=CARTESIAN_POINT('Ctrl Pts',(29.2435404270823,49.0000009570478,14.3101381700421));
#1354=CARTESIAN_POINT('Ctrl Pts',(29.5145576597573,49.0000009588875,14.4223971834528));
#1355=CARTESIAN_POINT('Ctrl Pts',(29.6618823415956,49.00000095971,14.4500001845721));
#1356=CARTESIAN_POINT('Ctrl Pts',(29.8000007867813,49.0000009603437,14.4500001845721));
#1357=CARTESIAN_POINT('Ctrl Pts',(29.938119231967,49.0000009609773,14.4500001845721));
#1358=CARTESIAN_POINT('Ctrl Pts',(30.0854439138054,49.0000009615066,14.4223971834528));
#1359=CARTESIAN_POINT('Ctrl Pts',(30.3564611464803,49.0000009621536,14.3101381700421));
#1360=CARTESIAN_POINT('Ctrl Pts',(30.4801536973169,49.0000009622713,14.2254821577505));
#1361=CARTESIAN_POINT('Ctrl Pts',(30.6754826757124,49.0000009621297,14.030153179355));
#1362=CARTESIAN_POINT('Ctrl Pts',(30.7601386880039,49.000000961861,13.9064606285184));
#1363=CARTESIAN_POINT('Ctrl Pts',(30.8723977014147,49.0000009609362,13.6354433958435));
#1364=CARTESIAN_POINT('Ctrl Pts',(30.900000702534,49.0000009602803,13.4881187140051));
#1365=CARTESIAN_POINT('Ctrl Pts',(30.900000702534,49.0000009588129,13.2118818236337));
#1366=CARTESIAN_POINT('Ctrl Pts',(30.8723977014147,49.0000009579036,13.0645571417954));
#1367=CARTESIAN_POINT('Ctrl Pts',(30.760138688004,49.000000955949,12.7935399091204));
#1368=CARTESIAN_POINT('Ctrl Pts',(30.6754826757124,49.0000009549037,12.6698473582838));
#1369=CARTESIAN_POINT('Ctrl Pts',(30.4801536973169,49.0000009529701,12.4745183798883));
#1370=CARTESIAN_POINT('Ctrl Pts',(30.3564611464803,49.000000951953,12.3898623675968));
#1371=CARTESIAN_POINT('Ctrl Pts',(30.0854439138054,49.0000009501135,12.277603354186));
#1372=CARTESIAN_POINT('Ctrl Pts',(29.938119231967,49.0000009492911,12.2500003530668));
#1373=CARTESIAN_POINT('Ctrl Pts',(29.8000007867813,49.0000009486575,12.2500003530668));
#1374=CARTESIAN_POINT('Ctrl Pts',(29.8000001242229,49.0000009486575,12.250000353067));
#1375=CARTESIAN_POINT('Ctrl Pts',(29.6618816790372,49.0000009480239,12.2500004362593));
#1376=CARTESIAN_POINT('Ctrl Pts',(29.5145576597573,49.0000009474946,12.277603354186));
#1377=CARTESIAN_POINT('Ctrl Pts',(29.2435404270823,49.0000009468476,12.3898623675968));
#1378=CARTESIAN_POINT('Ctrl Pts',(29.1198478762457,49.0000009467298,12.4745183798883));
#1379=CARTESIAN_POINT('Ctrl Pts',(28.9245188978502,49.0000009468712,12.6698473582838));
#1380=CARTESIAN_POINT('Ctrl Pts',(28.8398628855587,49.0000009471398,12.7935399091204));
#1381=CARTESIAN_POINT('Ctrl Pts',(28.7276038721479,49.0000009480643,13.0645571417954));
#1382=CARTESIAN_POINT('Ctrl Pts',(28.7000008710287,49.0000009487202,13.2118818236337));
#1383=CARTESIAN_POINT('Ctrl Pts',(28.7000008710287,49.0000009494538,13.3500002688194));
#1384=CARTESIAN_POINT('Origin',(50.8000011797931,49.0000043549523,13.3500004497551));
#1385=CARTESIAN_POINT('',(50.8000012559895,48.2000016015788,13.0500011540019));
#1386=CARTESIAN_POINT('Origin',(50.8000012274159,48.2000017166138,13.3500005331507));
#1387=CARTESIAN_POINT('',(50.8000011797934,49.0000009782509,12.2500005234801));
#1388=CARTESIAN_POINT('',(50.8000011797931,49.0000041714826,12.2499973302434));
#1389=CARTESIAN_POINT('',(49.7000013613661,49.0000009491023,13.3500003814699));
#1390=CARTESIAN_POINT('Ctrl Pts',(49.7000013613661,49.0000009491023,13.3500003814699));
#1391=CARTESIAN_POINT('Ctrl Pts',(49.7000013755108,49.0000009494204,13.4881188017087));
#1392=CARTESIAN_POINT('Ctrl Pts',(49.7276043574997,49.0000009498453,13.6354433442868));
#1393=CARTESIAN_POINT('Ctrl Pts',(49.8398633506344,49.0000009508178,13.9064605280109));
#1394=CARTESIAN_POINT('Ctrl Pts',(49.9245193476354,49.0000009513654,14.0301530565062));
#1395=CARTESIAN_POINT('Ctrl Pts',(50.1198482907508,49.0000009524213,14.2254819996216));
#1396=CARTESIAN_POINT('Ctrl Pts',(50.2435408192461,49.0000009530002,14.3101379966226));
#1397=CARTESIAN_POINT('Ctrl Pts',(50.5145580029701,49.0000009540998,14.4223969897572));
#1398=CARTESIAN_POINT('Ctrl Pts',(50.6618826581989,49.0000009546206,14.4499999858909));
#1399=CARTESIAN_POINT('Ctrl Pts',(50.8000010784377,49.0000009550493,14.4499999858909));
#1400=CARTESIAN_POINT('Ctrl Pts',(50.9381194986766,49.0000009554779,14.4499999858909));
#1401=CARTESIAN_POINT('Ctrl Pts',(51.0854441539053,49.0000009558716,14.4223969897572));
#1402=CARTESIAN_POINT('Ctrl Pts',(51.3564613376293,49.0000009564542,14.3101379966226));
#1403=CARTESIAN_POINT('Ctrl Pts',(51.4801538661246,49.0000009566432,14.2254819996215));
#1404=CARTESIAN_POINT('Ctrl Pts',(51.67548280924,49.0000009567996,14.0301530565062));
#1405=CARTESIAN_POINT('Ctrl Pts',(51.760138806241,49.0000009567776,13.9064605280109));
#1406=CARTESIAN_POINT('Ctrl Pts',(51.8723977993757,49.0000009565019,13.6354433442868));
#1407=CARTESIAN_POINT('Ctrl Pts',(51.9000007955093,49.0000009562484,13.4881186890581));
#1408=CARTESIAN_POINT('Ctrl Pts',(51.9000007955093,49.0000009556123,13.2118818485804));
#1409=CARTESIAN_POINT('Ctrl Pts',(51.8723977993757,49.0000009551874,13.0645571933517));
#1410=CARTESIAN_POINT('Ctrl Pts',(51.760138806241,49.0000009542149,12.7935400096277));
#1411=CARTESIAN_POINT('Ctrl Pts',(51.67548280924,49.0000009536673,12.6698474811323));
#1412=CARTESIAN_POINT('Ctrl Pts',(51.4801538661246,49.0000009526113,12.474518538017));
#1413=CARTESIAN_POINT('Ctrl Pts',(51.3564613376293,49.0000009520325,12.3898625410159));
#1414=CARTESIAN_POINT('Ctrl Pts',(51.0854441539053,49.0000009509328,12.2776035478813));
#1415=CARTESIAN_POINT('Ctrl Pts',(50.9381196000323,49.000000950412,12.2500005644741));
#1416=CARTESIAN_POINT('Ctrl Pts',(50.8000011797934,49.0000009499834,12.2500005517477));
#1417=CARTESIAN_POINT('Ctrl Pts',(50.8000010784377,49.0000009499834,12.2500005517477));
#1418=CARTESIAN_POINT('Ctrl Pts',(50.6618826581989,49.0000009495547,12.2500005517477));
#1419=CARTESIAN_POINT('Ctrl Pts',(50.5145580029701,49.000000949161,12.2776035478813));
#1420=CARTESIAN_POINT('Ctrl Pts',(50.2435408192461,49.0000009485784,12.389862541016));
#1421=CARTESIAN_POINT('Ctrl Pts',(50.1198482907508,49.0000009483894,12.474518538017));
#1422=CARTESIAN_POINT('Ctrl Pts',(49.9245193476354,49.000000948233,12.6698474811323));
#1423=CARTESIAN_POINT('Ctrl Pts',(49.8398633506344,49.000000948255,12.7935400096277));
#1424=CARTESIAN_POINT('Ctrl Pts',(49.7276043574997,49.0000009485307,13.0645571933517));
#1425=CARTESIAN_POINT('Ctrl Pts',(49.7000013613661,49.0000009487843,13.2118818485804));
#1426=CARTESIAN_POINT('Ctrl Pts',(49.7000013613661,49.0000009491023,13.3500002688193));
#1427=CARTESIAN_POINT('Origin',(4.20000008905987,50.5999994277954,42.7000008559133));
#1428=CARTESIAN_POINT('',(4.20000008905986,50.4000043869012,43.7000012025309));
#1429=CARTESIAN_POINT('Origin',(4.20000008905986,50.4000043869013,42.7000008559133));
#1430=CARTESIAN_POINT('',(4.20000008905987,50.5999994277954,43.7000012025309));
#1431=CARTESIAN_POINT('',(4.20000008905987,50.5999994277954,43.7000012025309));
#1432=CARTESIAN_POINT('Origin',(4.20000008905987,50.5999994277954,42.7000008559133));
#1433=CARTESIAN_POINT('Origin',(76.4000012477254,50.5999994277954,42.7000008559138));
#1434=CARTESIAN_POINT('',(76.4000012477254,50.4000043869016,43.7000007573523));
#1435=CARTESIAN_POINT('Origin',(76.4000012477254,50.4000043869016,42.7000008559138));
#1436=CARTESIAN_POINT('',(76.4000012477254,50.5999994277954,43.7000007573523));
#1437=CARTESIAN_POINT('',(76.4000012477254,50.5999994277954,43.7000007573523));
#1438=CARTESIAN_POINT('Origin',(76.4000012477254,50.5999994277954,42.7000008559138));
#1439=CARTESIAN_POINT('Origin',(4.20000008905991,50.5999994277954,3.80000008225567));
#1440=CARTESIAN_POINT('',(4.20000008905991,50.4000043869019,4.80000014624035));
#1441=CARTESIAN_POINT('Origin',(4.20000008905991,50.4000043869019,3.80000008225567));
#1442=CARTESIAN_POINT('',(4.20000008905991,50.5999994277954,4.80000014624035));
#1443=CARTESIAN_POINT('',(4.20000008905991,50.5999994277954,4.80000014624035));
#1444=CARTESIAN_POINT('Origin',(4.20000008905991,50.5999994277954,3.80000008225567));
#1445=CARTESIAN_POINT('Origin',(76.4000012477258,50.5999994277954,3.80000008225556));
#1446=CARTESIAN_POINT('',(76.4000012477258,50.4000043869017,4.79999970106124));
#1447=CARTESIAN_POINT('Origin',(76.4000012477258,50.4000043869017,3.80000008225556));
#1448=CARTESIAN_POINT('',(76.4000012477258,50.5999994277954,4.79999970106124));
#1449=CARTESIAN_POINT('',(76.4000012477258,50.5999994277954,4.79999970106124));
#1450=CARTESIAN_POINT('Origin',(76.4000012477258,50.5999994277954,3.80000008225556));
#1451=CARTESIAN_POINT('Origin',(40.3000004746874,50.4000043869019,23.849999936575));
#1452=CARTESIAN_POINT('',(40.3000004746874,52.0000028610229,13.4500000914894));
#1453=CARTESIAN_POINT('Origin',(40.3000004746874,52.0000028610229,23.849999936575));
#1454=CARTESIAN_POINT('',(40.3000004746874,50.4000043869019,13.4500000914894));
#1455=CARTESIAN_POINT('',(40.3000004746874,50.4000043869019,13.4500000914894));
#1456=CARTESIAN_POINT('Origin',(40.3000004746874,50.4000043869019,23.849999936575));
#1457=CARTESIAN_POINT('Origin',(4.20000017696471,50.5999994277954,42.7000015515309));
#1458=CARTESIAN_POINT('',(4.20000017696471,52.0000028610225,40.9000014269851));
#1459=CARTESIAN_POINT('Origin',(4.20000017696471,52.0000028610224,42.700001551531));
#1460=CARTESIAN_POINT('',(4.20000017696471,50.5999994277954,40.900001426985));
#1461=CARTESIAN_POINT('',(4.20000017696471,50.5999994277955,40.900001426985));
#1462=CARTESIAN_POINT('Origin',(4.20000017696471,50.5999994277954,42.7000015515309));
#1463=CARTESIAN_POINT('Origin',(76.4000005508207,50.5999994277954,42.7000015515308));
#1464=CARTESIAN_POINT('',(76.4000005508207,52.0000028610229,40.9000027450988));
#1465=CARTESIAN_POINT('Origin',(76.4000005508207,52.0000028610229,42.7000015515308));
#1466=CARTESIAN_POINT('',(76.4000005508207,50.5999994277954,40.9000027450988));
#1467=CARTESIAN_POINT('',(76.4000005508207,50.5999994277954,40.9000027450988));
#1468=CARTESIAN_POINT('Origin',(76.4000005508207,50.5999994277954,42.7000015515308));
#1469=CARTESIAN_POINT('Origin',(4.20000003171682,50.5999994277954,3.8000001183029));
#1470=CARTESIAN_POINT('',(4.20000003171682,52.0000028610229,2.00000008508333));
#1471=CARTESIAN_POINT('Origin',(4.20000003171682,52.0000028610229,3.8000001183029));
#1472=CARTESIAN_POINT('',(4.20000003171682,50.5999994277954,2.00000008508333));
#1473=CARTESIAN_POINT('',(4.20000003171682,50.5999994277954,2.00000008508333));
#1474=CARTESIAN_POINT('Origin',(4.20000003171682,50.5999994277954,3.8000001183029));
#1475=CARTESIAN_POINT('Origin',(76.4000004055702,50.5999994277954,3.80000011830294));
#1476=CARTESIAN_POINT('',(76.4000004055702,52.000002861023,2.00000140319982));
#1477=CARTESIAN_POINT('Origin',(76.4000004055702,52.000002861023,3.80000011830294));
#1478=CARTESIAN_POINT('',(76.4000004055702,50.5999994277954,2.00000140319982));
#1479=CARTESIAN_POINT('',(76.4000004055702,50.5999994277954,2.00000140319982));
#1480=CARTESIAN_POINT('Origin',(76.4000004055702,50.5999994277954,3.80000011830294));
#1481=CARTESIAN_POINT('Origin',(50.8000010784369,50.4000043869019,34.3500010172526));
#1482=CARTESIAN_POINT('',(50.8000010784369,50.4000043869019,33.2500014209411));
#1483=CARTESIAN_POINT('',(50.8000010784369,50.4000043869019,33.2500014209411));
#1484=CARTESIAN_POINT('Origin',(50.8000010784369,50.4000043869019,34.3500010172526));
#1485=CARTESIAN_POINT('Origin',(29.8000007867815,50.4000043869019,34.3500010172525));
#1486=CARTESIAN_POINT('',(29.8000007867815,50.4000043869019,33.2500012222598));
#1487=CARTESIAN_POINT('',(29.8000007867815,50.4000043869019,33.2500012222598));
#1488=CARTESIAN_POINT('Origin',(29.8000007867815,50.4000043869019,34.3500010172525));
#1489=CARTESIAN_POINT('Origin',(29.8000007867813,50.4000043869019,13.3500002688194));
#1490=CARTESIAN_POINT('',(29.8000007867813,50.4000043869019,12.2500003530668));
#1491=CARTESIAN_POINT('',(29.8000007867813,50.4000043869019,12.2500003530668));
#1492=CARTESIAN_POINT('Origin',(29.8000007867813,50.4000043869019,13.3500002688194));
#1493=CARTESIAN_POINT('Origin',(50.8000010784377,50.4000043869019,13.3500002688193));
#1494=CARTESIAN_POINT('',(50.8000010784377,50.4000043869019,12.2500005517477));
#1495=CARTESIAN_POINT('',(50.8000010784377,50.4000043869019,12.2500005517477));
#1496=CARTESIAN_POINT('Origin',(50.8000010784377,50.4000043869019,13.3500002688193));
#1497=CARTESIAN_POINT('Origin',(40.3000008084756,50.4000043869019,23.6205886698821));
#1498=CARTESIAN_POINT('',(80.600004196167,50.4000043869019,0.));
#1499=CARTESIAN_POINT('',(0.,50.4000043869019,0.));
#1500=CARTESIAN_POINT('',(40.3000014532796,50.4000043869019,0.));
#1501=CARTESIAN_POINT('',(80.600004196167,50.4000043869019,47.6999998092651));
#1502=CARTESIAN_POINT('',(80.600004196167,50.4000043869019,23.7352942872573));
#1503=CARTESIAN_POINT('',(0.,50.4000043869019,47.6999998092651));
#1504=CARTESIAN_POINT('',(40.3000014532796,50.4000043869019,47.6999998092651));
#1505=CARTESIAN_POINT('',(0.,50.4000043869019,23.7352942872573));
#1506=CARTESIAN_POINT('',(1.60000011324883,50.4000043869019,23.7352942872573));
#1507=CARTESIAN_POINT('',(3.59999984502792,50.4000043869019,23.7352942872573));
#1508=CARTESIAN_POINT('',(40.3000008572331,50.4000043869019,3.20000022649765));
#1509=CARTESIAN_POINT('',(40.3000008572331,50.4000043869019,1.20000004768372));
#1510=CARTESIAN_POINT('',(40.3000008572331,50.4000043869019,45.3000020980835));
#1511=CARTESIAN_POINT('',(40.3000008572331,50.4000043869019,43.2999992370605));
#1512=CARTESIAN_POINT('',(77.0000028610229,50.4000043869019,23.7352942872573));
#1513=CARTESIAN_POINT('',(79.0000009536743,50.4000043869019,23.7352942872573));
#1514=CARTESIAN_POINT('Origin',(40.3000004226115,52.0000028610229,23.484146736744));
#1515=CARTESIAN_POINT('',(0.,52.0000028610229,47.6999998092651));
#1516=CARTESIAN_POINT('',(0.,52.0000028610229,0.));
#1517=CARTESIAN_POINT('',(0.,52.0000028610229,23.6670733206883));
#1518=CARTESIAN_POINT('',(80.600004196167,52.0000028610229,47.6999998092651));
#1519=CARTESIAN_POINT('',(40.3000012603475,52.0000028610229,47.6999998092651));
#1520=CARTESIAN_POINT('',(80.600004196167,52.0000028610229,0.));
#1521=CARTESIAN_POINT('',(80.600004196167,52.0000028610229,23.6670733206883));
#1522=CARTESIAN_POINT('',(40.3000012603475,52.0000028610229,0.));
#1523=CARTESIAN_POINT('Origin',(0.,51.2000036239624,23.8499999046326));
#1524=CARTESIAN_POINT('',(0.,51.2000036239624,47.6999998092651));
#1525=CARTESIAN_POINT('',(0.,51.2000036239624,0.));
#1526=CARTESIAN_POINT('Origin',(40.3000020980835,51.2000036239624,47.6999998092651));
#1527=CARTESIAN_POINT('',(80.600004196167,51.2000036239624,47.6999998092651));
#1528=CARTESIAN_POINT('Origin',(80.600004196167,51.2000036239624,23.8499999046326));
#1529=CARTESIAN_POINT('',(80.600004196167,51.2000036239624,0.));
#1530=CARTESIAN_POINT('Origin',(40.3000020980835,51.2000036239624,0.));
#1531=CARTESIAN_POINT('Origin',(4.2000000695793,50.5999994277954,42.700001171657));
#1532=CARTESIAN_POINT('Origin',(76.4000009030712,50.5999994277954,42.700001171657));
#1533=CARTESIAN_POINT('Origin',(4.2000000695793,50.5999994277954,3.8000000617942));
#1534=CARTESIAN_POINT('Origin',(76.4000009030712,50.5999994277954,3.8000000617942));
#1535=CARTESIAN_POINT('Origin',(50.8000010251999,48.2000017166138,34.3500003218651));
#1536=CARTESIAN_POINT('Origin',(29.7999999920527,48.2000017166138,34.3500003218651));
#1537=CARTESIAN_POINT('Origin',(29.7999999920527,48.2000017166138,13.3500004808108));
#1538=CARTESIAN_POINT('Origin',(50.8000010251999,48.2000017166138,13.3500004808108));
#1539=CARTESIAN_POINT('Origin',(78.0000019073486,48.4000015258789,23.8499999046326));
#1540=CARTESIAN_POINT('',(79.0000009536743,48.4000015258789,23.8499999046326));
#1541=CARTESIAN_POINT('',(77.0000028610229,48.4000015258789,23.8499999046326));
#1542=CARTESIAN_POINT('Origin',(79.0000009536743,49.4000029563904,23.8499999046326));
#1543=CARTESIAN_POINT('Origin',(77.0000028610229,49.4000029563904,23.8499999046326));
#1544=CARTESIAN_POINT('Origin',(2.59999997913837,48.4000015258789,23.8499999046326));
#1545=CARTESIAN_POINT('',(3.59999984502792,48.4000015258789,23.8499999046326));
#1546=CARTESIAN_POINT('',(1.60000011324883,48.4000015258789,23.8499999046326));
#1547=CARTESIAN_POINT('Origin',(1.60000011324883,49.4000029563904,23.8499999046326));
#1548=CARTESIAN_POINT('Origin',(3.59999984502792,49.4000029563904,23.8499999046326));
#1549=CARTESIAN_POINT('Origin',(40.3000009059906,48.4000015258789,2.20000013709068));
#1550=CARTESIAN_POINT('',(40.3000009059906,48.4000015258789,1.20000004768372));
#1551=CARTESIAN_POINT('',(40.3000009059906,48.4000015258789,3.20000022649765));
#1552=CARTESIAN_POINT('Origin',(40.3000009059906,49.4000029563904,3.20000022649765));
#1553=CARTESIAN_POINT('Origin',(40.3000009059906,49.4000029563904,1.20000004768372));
#1554=CARTESIAN_POINT('Origin',(40.3000009059906,48.4000015258789,44.300000667572));
#1555=CARTESIAN_POINT('',(40.3000009059906,48.4000015258789,43.2999992370605));
#1556=CARTESIAN_POINT('',(40.3000009059906,48.4000015258789,45.3000020980835));
#1557=CARTESIAN_POINT('Origin',(40.3000009059906,49.4000029563904,43.2999992370605));
#1558=CARTESIAN_POINT('Origin',(40.3000009059906,49.4000029563904,45.3000020980835));
#1559=UNCERTAINTY_MEASURE_WITH_UNIT(LENGTH_MEASURE(0.01),#1563,
'DISTANCE_ACCURACY_VALUE',
'Maximum model space distance between geometric entities at asserted c
onnectivities');
#1560=UNCERTAINTY_MEASURE_WITH_UNIT(LENGTH_MEASURE(0.01),#1563,
'DISTANCE_ACCURACY_VALUE',
'Maximum model space distance between geometric entities at asserted c
onnectivities');
#1561=(
GEOMETRIC_REPRESENTATION_CONTEXT(3)
GLOBAL_UNCERTAINTY_ASSIGNED_CONTEXT((#1559))
GLOBAL_UNIT_ASSIGNED_CONTEXT((#1563,#1565,#1566))
REPRESENTATION_CONTEXT('','3D')
);
#1562=(
GEOMETRIC_REPRESENTATION_CONTEXT(3)
GLOBAL_UNCERTAINTY_ASSIGNED_CONTEXT((#1560))
GLOBAL_UNIT_ASSIGNED_CONTEXT((#1563,#1565,#1566))
REPRESENTATION_CONTEXT('','3D')
);
#1563=(
LENGTH_UNIT()
NAMED_UNIT(*)
SI_UNIT(.MILLI.,.METRE.)
);
#1564=(
LENGTH_UNIT()
NAMED_UNIT(*)
SI_UNIT($,.METRE.)
);
#1565=(
NAMED_UNIT(*)
PLANE_ANGLE_UNIT()
SI_UNIT($,.RADIAN.)
);
#1566=(
NAMED_UNIT(*)
SI_UNIT($,.STERADIAN.)
SOLID_ANGLE_UNIT()
);
#1567=SHAPE_DEFINITION_REPRESENTATION(#1568,#1569);
#1568=PRODUCT_DEFINITION_SHAPE('',$,#1571);
#1569=SHAPE_REPRESENTATION('',(#871),#1561);
#1570=PRODUCT_DEFINITION_CONTEXT('part definition',#1575,'design');
#1571=PRODUCT_DEFINITION('2026-05-26-04-42-34-787','rear_cover',#1572,#1570);
#1572=PRODUCT_DEFINITION_FORMATION('',$,#1577);
#1573=PRODUCT_RELATED_PRODUCT_CATEGORY('rear_cover','rear_cover',(#1577));
#1574=APPLICATION_PROTOCOL_DEFINITION('international standard',
'automotive_design',2009,#1575);
#1575=APPLICATION_CONTEXT(
'Core Data for Automotive Mechanical Design Process');
#1576=PRODUCT_CONTEXT('part definition',#1575,'mechanical');
#1577=PRODUCT('2026-05-26-04-42-34-787','rear_cover',$,(#1576));
#1578=PRESENTATION_STYLE_ASSIGNMENT((#1579));
#1579=SURFACE_STYLE_USAGE(.BOTH.,#1580);
#1580=SURFACE_SIDE_STYLE('',(#1581));
#1581=SURFACE_STYLE_FILL_AREA(#1582);
#1582=FILL_AREA_STYLE('Stahl - satiniert',(#1583));
#1583=FILL_AREA_STYLE_COLOUR('Stahl - satiniert',#1584);
#1584=COLOUR_RGB('Stahl - satiniert',0.627450980392157,0.627450980392157,
0.627450980392157);
ENDSEC;
END-ISO-10303-21;
